<svg xmlns="http://www.w3.org/2000/svg" xml:space="preserve" x="0" y="0" version="1.1" viewBox="0 0 122.9 88.2"><path d="M121.7 33.3c-.4-.2-3.4-2.6-10-2.6-1.8 0-3.5.2-5.2.5-1.3-8.7-8.5-13-8.8-13.2l-1.8-1-1.1 1.6a24.3 24.3 0 0 0-3.2 7.3 18 18 0 0 0 2 13.7c-3 1.7-7.8 2-8.9 2.1H3.8A3.8 3.8 0 0 0 0 45.5c-.1 7.1 1 14.2 3.5 20.8a31 31 0 0 0 12.3 16c6 3.8 16 5.9 27 5.9 5 0 10-.5 15-1.4a61.8 61.8 0 0 0 19.6-7.1c5-3 9.6-6.6 13.4-11a72.5 72.5 0 0 0 13-22.5h1.2c7 0 11.3-2.8 13.7-5.2 1.6-1.4 2.8-3.3 3.6-5.3l.6-1.5-1.2-.9zm-50.1 6h10.8c.5 0 1-.3 1-.9v-9.7c0-.5-.4-1-1-1H71.6a1 1 0 0 0-1 1v9.7c0 .6.5 1 1 1zM56.5 11.7h10.8c.5 0 1-.4 1-1V1c0-.5-.5-1-1-1H56.5a1 1 0 0 0-1 1v9.7c0 .5.5 1 1 1zm0 14h10.8c.5 0 1-.5 1-1V15c0-.5-.5-1-1-1H56.5a1 1 0 0 0-1 1v9.7c0 .5.5 1 1 1zm-15 0h10.8c.5 0 1-.5 1-1V15c0-.5-.4-1-1-1H41.5a1 1 0 0 0-1 1v9.7c0 .5.4 1 1 1zm-15.2 0H37c.5 0 1-.5 1-1V15c0-.5-.4-1-1-1H26.3a1 1 0 0 0-1 1v9.7c0 .5.5 1 1 1zm30.2 13.8h10.8c.5 0 1-.4 1-1v-9.7c0-.5-.4-1-1-1H56.5a1 1 0 0 0-1 1v9.7c0 .6.5 1 1 1zm-15 0h10.8c.5 0 1-.4 1-1v-9.7c0-.5-.4-1-1-1H41.5a1 1 0 0 0-1 1v9.7c0 .6.4 1 1 1zm-15.2 0H37c.5 0 1-.4 1-1v-9.7c0-.5-.4-1-1-1H26.3a1 1 0 0 0-1 1v9.7c0 .6.5 1 1 1zm-15 0h10.9c.5 0 1-.4 1-1v-9.7c0-.5-.5-1-1-1H11.4a1 1 0 0 0-1 1v9.7c0 .6.4 1 1 1z" fill="#0091e2"/></svg>