<svg width="561" height="533" viewBox="0 0 561 533" fill="none" xmlns="http://www.w3.org/2000/svg">
<path d="M15.5592 56.622C-0.157146 106.324 -1.92523 113.244 1.41449 113.244C3.96839 113.244 6.12938 109.889 9.27264 100.032C18.8989 70.2533 40.7053 1.46795 40.7053 0.629103C40.7053 0.419392 39.1336 -3.12328e-05 37.1691 -3.12328e-05C34.2223 -3.12328e-05 30.2932 10.2758 15.5592 56.622Z" fill="white"/>
<path d="M74.6918 3.56511C75.2812 5.66222 76.2634 11.9536 77.0492 17.4061L78.228 27.4722L67.423 19.9226C61.5294 15.9381 55.8322 12.5827 54.8499 12.5827C53.8677 12.5827 52.0996 14.8895 50.9209 17.8255C48.7599 22.8586 48.9563 23.0683 60.3507 26.6334C67.0301 28.5208 71.5485 30.6179 70.7627 31.4567C69.9769 32.2956 65.0656 34.183 59.9577 35.6509C50.528 38.3772 48.5634 41.5229 52.296 48.0239C53.6712 50.3307 56.2251 49.4919 65.4585 43.4103C71.745 39.216 77.0492 36.0704 77.2457 36.2801C77.6386 36.4898 77.0492 42.152 76.2634 48.8628C75.4776 55.3638 75.2812 61.2357 75.6741 61.8649C76.2634 62.494 78.8173 62.9134 81.5677 62.9134C86.2826 62.9134 86.2826 62.7037 84.9074 49.2822L83.5322 35.6509L95.123 42.9908C105.535 49.7016 106.714 50.121 109.071 46.7656C113.393 40.4743 111.625 38.5869 99.2485 34.6024L86.8719 31.0373L98.4627 27.4722C111.232 23.4877 112.804 21.81 108.678 15.7284C106.124 11.9536 105.732 11.9536 96.3017 18.4546C90.9975 22.2294 85.8897 25.1654 85.1038 25.1654C84.1216 25.1654 84.1216 19.5032 84.9074 12.5827L86.2826 1.42455e-05H79.996C75.0847 1.42455e-05 74.1024 0.83886 74.6918 3.56511Z" fill="white"/>
<path d="M153.273 3.56511C153.863 5.66222 154.845 11.9536 155.631 17.4061L156.81 27.4722L146.005 19.9226C140.111 15.9381 134.414 12.5827 133.432 12.5827C132.449 12.5827 130.681 14.8895 129.502 17.8255C127.341 22.8586 127.538 23.0683 138.932 26.6334C145.612 28.5208 150.13 30.6179 149.344 31.4567C148.558 32.2956 143.647 34.183 138.539 35.6509C129.11 38.3772 127.145 41.5229 130.878 48.0239C132.253 50.3307 134.807 49.4919 144.04 43.4103C150.327 39.216 155.631 36.0704 155.827 36.2801C156.22 36.4898 155.631 42.152 154.845 48.8628C154.059 55.3638 153.863 61.2357 154.256 61.8649C154.845 62.494 157.399 62.9134 160.149 62.9134C164.864 62.9134 164.864 62.7037 163.489 49.2822L162.114 35.6509L173.705 42.9908C184.117 49.7016 185.295 50.121 187.653 46.7656C191.975 40.4743 190.207 38.5869 177.83 34.6024L165.454 31.0373L177.044 27.4722C189.814 23.4877 191.385 21.81 187.26 15.7284C184.706 11.9536 184.313 11.9536 174.883 18.4546C169.579 22.2294 164.471 25.1654 163.685 25.1654C162.703 25.1654 162.703 19.5032 163.489 12.5827L164.864 1.42455e-05H158.578C153.666 1.42455e-05 152.684 0.83886 153.273 3.56511Z" fill="white"/>
<path d="M70.3698 212.228C70.3698 213.696 71.1556 219.358 71.9414 224.811C72.7272 230.473 73.1202 234.877 72.5308 234.877C72.1379 234.877 66.8336 231.941 61.1365 228.376C49.9386 221.665 47.7776 221.665 46.0095 228.585C45.2237 232.15 46.7953 233.199 57.0109 236.554L69.1911 240.329L58.3861 244.314C52.4925 246.411 46.9918 248.508 46.0095 248.927C44.8308 249.557 47.1882 256.687 49.7421 259.623C49.9386 260.042 55.2428 257.106 61.1365 252.912C73.3166 244.523 74.2989 244.104 73.1202 247.879C72.7272 249.347 71.9414 255.638 71.1556 261.51L69.9769 272.625H76.067C82.5499 272.625 82.7464 271.996 80.1925 255.219C79.4067 249.766 78.8173 245.362 79.2102 245.362C79.6031 245.362 84.9074 248.718 91.1939 252.702L102.588 260.042L105.142 254.59C106.714 251.654 107.5 248.927 107.107 248.718C106.714 248.508 101.213 246.621 94.7301 244.523L82.9428 240.749L95.3194 236.554C101.999 234.457 107.5 231.941 107.5 231.102C107.5 230.053 106.321 227.537 104.749 225.44C102.195 221.665 101.802 221.875 91.9797 228.166C86.479 231.941 81.3712 234.877 80.5854 234.877C79.996 234.877 79.996 229.215 80.5854 222.294L81.9606 209.711H76.067C72.5308 209.711 70.1733 210.76 70.3698 212.228Z" fill="white"/>
<path d="M172.329 211.808C172.329 212.857 175.473 214.325 179.205 215.164L186.081 216.422V260.881C186.081 297.58 185.492 305.969 182.938 309.953C177.83 317.713 165.65 314.777 164.078 305.34C163.882 303.033 162.31 300.936 160.935 300.307C158.971 299.678 158.578 301.984 158.971 309.534L159.56 319.81L170.365 320.439C183.724 321.068 191.778 316.454 196.886 304.92C200.029 298 200.815 290.241 201.405 256.477L202.19 216.422L206.905 215.164C217.71 212.228 210.638 209.711 191.975 209.711C180.777 209.711 172.329 210.55 172.329 211.808Z" fill="white"/>
<path d="M241.874 212.647C227.729 219.358 222.818 238.442 231.266 253.331C235.195 260.042 237.749 261.72 264.27 273.673C278.807 280.174 283.719 291.709 278.218 304.92C275.468 311.002 265.645 316.664 257.394 316.664C254.251 316.664 247.768 314.567 243.053 311.841C235.588 308.066 234.016 305.969 233.23 300.097C232.641 296.112 231.069 292.547 229.89 291.918C227.926 291.289 227.336 294.644 227.336 303.872C227.336 315.825 227.729 316.874 232.444 318.761C240.302 322.117 257.59 323.585 267.61 322.117C300.024 316.874 302.775 268.64 271.146 257.945C241.285 247.669 232.444 235.506 244.821 222.084C249.536 217.261 252.286 216.003 259.555 216.003C269.181 216.003 278.415 218.939 280.772 222.923C281.558 224.391 282.344 227.537 282.344 230.053C282.344 232.989 283.522 234.877 285.29 234.877C287.451 234.877 288.237 232.15 288.237 223.552C288.237 213.696 287.648 212.228 283.915 210.97C275.664 208.663 248.161 209.921 241.874 212.647Z" fill="white"/>
<path d="M307.883 211.599C307.883 212.647 311.026 214.325 314.758 215.164L321.634 216.422V265.495C321.634 312.47 321.438 314.567 317.902 314.567C312.794 314.567 307.883 316.664 307.883 318.971C307.883 322.326 367.015 321.278 378.213 317.713C399.234 311.002 410.039 293.596 410.039 266.124C410.039 239.281 402.573 224.181 384.5 215.164C376.838 211.389 371.141 210.76 341.869 210.131C318.884 209.502 307.883 209.921 307.883 211.599ZM371.73 222.084C381.16 226.698 389.214 236.135 392.358 246.621C395.894 257.735 393.929 284.788 389.214 294.644C382.339 308.695 377.034 311.421 354.835 312.051L335.386 312.889V265.495V218.1H349.727C359.157 218.1 366.426 219.358 371.73 222.084Z" fill="white"/>
<path d="M439.9 245.153C428.898 250.815 423.987 261.929 423.79 281.433C423.79 307.647 432.434 320.229 451.883 322.326C459.938 323.165 464.456 322.536 471.529 319.181C484.102 313.309 488.62 303.452 488.62 282.062C488.62 255.219 480.173 243.685 459.349 242.007C451.097 241.168 446.186 242.007 439.9 245.153ZM464.849 250.605C472.118 254.59 474.868 263.188 474.868 282.481C474.868 300.516 471.332 310.583 463.867 314.357C453.848 319.181 445.4 316.245 440.489 306.179C436.363 297.79 436.363 266.333 440.685 257.735C445.4 247.879 455.027 245.153 464.849 250.605Z" fill="white"/>
<path d="M521.035 244.104C507.873 250.395 502.372 261.72 502.372 282.481C502.372 309.115 514.356 323.165 536.948 322.746C548.146 322.746 559.736 318.971 560.915 314.986C561.505 312.889 559.147 312.47 549.914 313.728C525.357 316.664 516.124 307.856 516.124 280.804C516.124 267.592 516.909 263.607 520.642 257.735C526.143 248.927 533.215 245.991 542.841 248.718C548.735 250.186 550.7 252.073 552.468 257.945C555.807 268.431 558.361 266.963 558.951 254.59L559.54 243.894L552.075 242.426C540.287 240.539 527.518 241.168 521.035 244.104Z" fill="white"/>
<path d="M70.3698 421.939C70.3698 423.407 71.1556 429.069 71.9414 434.522C72.7273 440.184 73.1202 444.588 72.5308 444.588C72.1379 444.588 66.8336 441.652 60.7436 437.877C50.3315 431.586 49.7422 431.586 47.3847 435.151C45.8131 437.458 44.6344 439.765 44.6344 440.813C44.6344 441.652 50.1351 444.169 57.011 446.266L69.1911 450.041L58.3861 454.025C52.4925 456.122 46.9918 458.219 46.0095 458.639C44.8308 459.268 47.1883 466.398 49.7422 469.334C49.9386 469.754 55.2429 466.818 61.1365 462.623C73.3166 454.235 74.2989 453.815 73.1202 457.59C72.7273 459.058 71.9414 465.35 71.1556 471.221L69.9769 482.336H76.067C82.55 482.336 82.7464 481.707 80.1925 464.93C79.4067 459.478 78.8173 455.074 79.2102 455.074C79.6032 455.074 84.9074 458.429 91.1939 462.414L102.588 469.754L105.142 464.301C106.714 461.365 107.5 458.639 107.107 458.429C106.714 458.219 101.213 456.332 94.7301 454.235L82.9429 450.46L95.3195 446.266C101.999 444.169 107.5 441.652 107.5 440.813C107.5 439.765 106.321 437.248 104.749 435.151C102.195 431.376 101.802 431.586 91.9797 437.877C86.479 441.652 81.1748 444.588 80.1925 444.588C79.4067 444.588 79.4067 440.184 80.1925 434.522C82.55 419.632 82.55 419.423 76.067 419.423C72.5308 419.423 70.1734 420.471 70.3698 421.939Z" fill="white"/>
<path d="M133.431 476.045C117.715 525.746 115.947 532.667 119.287 532.667C121.841 532.667 124.002 529.311 127.145 519.455C136.771 489.676 158.578 420.891 158.578 420.052C158.578 419.842 157.006 419.423 155.041 419.423C152.095 419.423 148.166 429.699 133.431 476.045Z" fill="white"/>
</svg>
