<svg width="512" height="512" viewBox="0 0 512 512" fill="none" xmlns="http://www.w3.org/2000/svg">
<g clip-path="url(#clip0_1_2)">
<path d="M165.786 208.784C157.72 227.605 101.257 286.756 106.634 345.907C128.144 593.268 203.428 426.569 316.353 488.409C316.353 488.409 518.006 375.483 356.684 192.651C310.976 128.123 351.306 77.0372 321.73 34.018C292.155 -9.00123 241.069 -11.6899 203.428 28.6406C165.786 68.9711 219.56 128.123 165.786 208.784Z" fill="#333333"/>
<path d="M364.75 332.464C364.75 332.464 388.948 284.067 343.24 249.114C386.259 294.822 359.372 335.153 359.372 335.153H351.306C348.617 241.048 324.419 292.133 289.466 125.434C329.797 79.726 251.824 39.3954 251.824 114.679H227.626C230.315 50.1503 173.852 82.4147 206.116 128.123C203.428 227.605 144.276 267.935 144.276 337.841C125.455 289.445 160.408 251.803 160.408 251.803C160.408 251.803 112.012 292.133 141.587 351.285C171.163 410.436 224.937 396.993 187.295 423.88C246.447 464.21 337.863 437.323 335.174 351.285C337.863 329.775 394.325 337.841 399.703 343.219C405.08 348.596 391.637 332.464 364.75 332.464ZM214.182 122.745C195.361 117.368 200.739 93.1695 208.805 93.1695C216.871 93.1695 230.315 111.99 214.182 122.745ZM265.268 125.434C251.824 106.613 262.579 87.7921 276.022 90.4808C289.466 93.1695 289.466 125.434 265.268 125.434Z" fill="#EEEEEE"/>
<path d="M141.587 359.351L198.05 440.012C227.626 458.833 211.494 534.117 130.833 496.475C85.1246 483.031 47.4828 485.72 42.1054 461.522C36.728 437.323 52.8602 434.635 50.1715 423.88C39.4167 364.728 87.8133 394.304 101.257 364.728C114.7 335.153 114.7 321.709 141.587 359.351ZM442.722 396.993C431.967 380.861 442.722 351.285 405.08 353.974C388.948 386.238 343.24 418.502 340.551 353.974C313.664 353.974 332.485 418.502 321.73 448.078C297.532 520.673 367.438 526.05 397.014 491.097L466.92 442.701C472.298 434.635 480.364 426.569 442.722 396.993ZM195.361 149.632C187.295 133.5 224.937 111.99 238.381 111.99C251.824 111.99 270.645 122.745 289.466 128.123C308.287 133.5 300.221 152.321 294.843 155.01C289.466 157.698 259.89 181.897 238.381 181.897C216.871 181.897 211.494 160.387 195.361 149.632Z" fill="#FFCC22" stroke="#333333" stroke-width="2"/>
<path d="M195.361 146.943C216.871 163.076 241.069 176.519 289.466 138.877Z" fill="#FFCC22"/>
<path d="M195.361 146.943C216.871 163.076 241.069 176.519 289.466 138.877" stroke="#333333" stroke-width="2"/>
<path d="M224.937 130.811C219.56 130.811 227.626 125.434 230.315 128.123ZM249.135 130.811C251.824 128.123 246.447 125.434 241.069 128.123Z" fill="#333333"/>
</g>
<defs>
<clipPath id="clip0_1_2">
<rect width="512" height="512" fill="white"/>
</clipPath>
</defs>
</svg>
