<svg xmlns="http://www.w3.org/2000/svg" fill-rule="evenodd" clip-rule="evenodd" image-rendering="optimizeQuality" shape-rendering="geometricPrecision" text-rendering="geometricPrecision" viewBox="0 0 599 1333"><g fill-rule="nonzero"><path d="m295 4 36 66c8 13 17 24 27 34a820 820 0 0 1 213 357c18 58 27 117 28 177a628 628 0 0 1-249 520c-12 0-18-10-23-19a252 252 0 0 1-24-118v-10c-1-2-12-1002-8-1007z" fill="#599636"/><path d="M295 1c-1-2-3 0-4 1 1 15-4 28-12 40-9 12-21 22-32 32A696 696 0 0 0 90 273 799 799 0 0 0 1 598c-4 42 13 188 26 230a696 696 0 0 0 246 342c7 0 8-6 9-10l7-29 14-109L295 1z" fill="#6cac48"/><path d="M331 1202c1-17 9-31 18-45-9-3-15-10-20-18s-8-16-11-24c-10-31-12-63-15-94v-19c-4 3-5 28-5 31-2 33-6 66-13 98-2 14-3 27-12 38l1 5c13 39 17 78 19 118v14c0 18-1 14 14 20 6 2 12 3 18 7 4 0 5-3 5-6l-2-24v-67c-1-12 1-23 3-34z" fill="#c2bfbf"/></g></svg>