<svg width="100" height="100" viewBox="0 0 100 100" fill="none" xmlns="http://www.w3.org/2000/svg">
<g clip-path="url(#clip0_1_46)">
<path d="M73.0133 72.094L22.1308 67.6424C21.1224 67.5541 20.3441 66.6275 20.4327 65.6205L25.9781 2.57045C26.0667 1.56351 26.9948 0.786128 28.0031 0.874346L78.9633 5.33278C79.9716 5.421 80.7499 6.34767 80.6613 7.35462L75.1159 70.4047C74.9498 71.4048 74.0992 72.189 73.0133 72.094Z" fill="#E6E9EE"/>
<path d="M76.2521 68.55L25.362 72.9148C24.3535 73.0013 23.4275 72.2223 23.3416 71.2151L17.9618 8.15065C17.8759 7.14348 18.6565 6.21807 19.665 6.13157L70.6327 1.76014C71.6412 1.67364 72.5672 2.45267 72.6531 3.45985L78.0329 66.5243C78.0412 67.5381 77.3381 68.4569 76.2521 68.55Z" fill="white"/>
<path d="M45.1863 32.7586L22.567 34.6791L22.6914 36.4377L45.3108 34.5171L45.1863 32.7586Z" fill="#B9B9B9"/>
<path d="M71.4954 30.4568L48.876 32.3774L49.0005 34.136L71.6198 32.2154L71.4954 30.4568Z" fill="#B9B9B9"/>
<path d="M45.6263 37.7882L23.007 39.7088L23.1315 41.4674L45.7508 39.5468L45.6263 37.7882Z" fill="#B9B9B9"/>
<path d="M71.9354 35.4865L49.3161 37.4071L49.4406 39.1656L72.0599 37.245L71.9354 35.4865Z" fill="#B9B9B9"/>
<path d="M46.0731 42.8953L23.4538 44.8159L23.5783 46.5744L46.1976 44.6539L46.0731 42.8953Z" fill="#B9B9B9"/>
<path d="M72.3822 40.5935L49.7629 42.5141L49.8874 44.2727L72.5067 42.3521L72.3822 40.5935Z" fill="#B9B9B9"/>
<path d="M46.5199 48.0024L23.9006 49.923L24.0251 51.6815L46.6444 49.7609L46.5199 48.0024Z" fill="#B9B9B9"/>
<path d="M72.829 45.7006L50.2097 47.6212L50.3342 49.3798L72.9535 47.4592L72.829 45.7006Z" fill="#B9B9B9"/>
<path d="M46.9668 53.1094L24.3474 55.03L24.4719 56.7886L47.0912 54.868L46.9668 53.1094Z" fill="#B9B9B9"/>
<path d="M73.2758 50.8077L50.6565 52.7282L50.781 54.4868L73.4003 52.5662L73.2758 50.8077Z" fill="#B9B9B9"/>
<path d="M47.4136 58.2165L24.7942 60.1371L24.9187 61.8956L47.538 59.975L47.4136 58.2165Z" fill="#B9B9B9"/>
<path d="M73.7227 55.9147L51.1033 57.8353L51.2278 59.5939L73.8471 57.6733L73.7227 55.9147Z" fill="#B9B9B9"/>
<path d="M47.8604 63.3235L25.241 65.2441L25.3655 67.0027L47.9848 65.0821L47.8604 63.3235Z" fill="#B9B9B9"/>
<path d="M74.1695 61.0218L51.5501 62.9424L51.6746 64.7009L74.2939 62.7803L74.1695 61.0218Z" fill="#B9B9B9"/>
<path d="M70.6995 20.0265C71.0608 24.2657 67.9775 27.1392 64.9093 27.4019L58.5369 27.9474C57.5929 28.0282 56.5886 27.4025 56.4882 26.2249L54.9626 8.32592C54.8823 7.38387 55.5101 6.3812 56.6901 6.28018L61.6464 5.85587C61.8824 5.83567 63.0625 5.73464 64.5388 6.31995C66.5072 7.10037 67.8479 8.88345 68.0486 11.2386C68.149 12.4162 68.0133 13.6139 67.3856 14.6166C69.3941 15.868 70.4988 17.6713 70.6995 20.0265ZM59.2808 14.3615L61.877 14.1392C62.349 14.0988 64.4731 13.917 64.2724 11.5619C64.0917 9.44224 62.6556 9.32796 62.1835 9.36837C61.9475 9.38857 61.9475 9.38857 61.9475 9.38857L58.8794 9.65124L59.2808 14.3615V14.3615ZM67.1593 20.3295C67.0589 19.152 66.1903 17.3285 64.0662 17.5103L59.818 17.874L60.36 24.2329L64.6082 23.8692C64.6082 23.8692 65.5522 23.7883 66.2201 23.2567C67.104 22.4693 67.2396 21.2716 67.1593 20.3295Z" fill="#00B4FF"/>
<path d="M32.9066 19.2687C32.404 13.3791 36.6971 8.02696 42.3554 7.54114C48.0137 7.05531 53.131 11.3621 53.6536 17.4873C54.1561 23.3769 49.863 28.729 44.2048 29.2148C38.3107 29.7209 33.4091 25.1583 32.9066 19.2687ZM36.443 18.965C36.7847 22.97 40.1109 25.7694 43.6474 25.4657C47.4196 25.1419 50.203 21.5805 49.8814 17.8112C49.5397 13.8063 46.2135 11.0068 42.4413 11.3307C38.9049 11.6344 36.1013 14.9601 36.443 18.965Z" fill="#00B4FF"/>
<path d="M23.0724 29.1482C22.9925 28.2064 23.6233 27.2043 24.8077 27.1039C27.1765 26.9031 27.2137 24.5285 27.1938 24.2931L26.0557 10.8725C25.9758 9.93068 26.6066 8.92864 27.791 8.82822C28.7385 8.74789 29.7459 9.3739 29.8458 10.5511L30.9838 23.9717C31.0038 24.2072 31.1236 25.6199 30.5327 27.0928C29.7649 29.2922 27.7328 30.6502 25.364 30.851C23.9428 30.9715 23.1523 30.09 23.0724 29.1482Z" fill="#00B4FF"/>
<path d="M11 45.557V59.6793C11 60.3163 11.2803 60.9337 11.7932 61.4254L35.3445 84.0128V98.6256C35.3445 99.5521 36.4824 100.213 37.602 99.9365L61.9464 93.9277C62.6725 93.7485 63.1666 93.2176 63.1666 92.6169V84.0127L86.7179 61.4252C87.2306 60.9334 87.5111 60.3161 87.5111 59.6791V45.5569C87.5111 44.7985 86.7325 44.1834 85.7721 44.1834H12.7388C11.7785 44.1835 11 44.7985 11 45.557Z" fill="#FF5050"/>
<path d="M87.273 60.6646H11.238C11.3712 60.9379 11.5544 61.1962 11.7932 61.4254L35.3445 84.0128H63.1666L86.7183 61.4254C86.9571 61.1961 87.1401 60.9377 87.273 60.6646Z" fill="#C84146"/>
</g>
<defs>
<clipPath id="clip0_1_46">
<rect width="100" height="100" fill="white"/>
</clipPath>
</defs>
</svg>
