<svg xmlns="http://www.w3.org/2000/svg" xmlns:xlink="http://www.w3.org/1999/xlink" width="256" height="256" preserveAspectRatio="xMidYMid" version="1.1" viewBox="0 0 256 256"><defs><path d="M128 0c70.75 0 128 57.25 128 128s-57.25 128-128 128S0 198.75 0 128 57.25 0 128 0Z" id="a"/><path d="M128 3c69.1 0 125 55.9 125 125s-55.9 125-125 125S3 197.1 3 128 58.9 3 128 3Z" id="c"/><filter id="d" width="104.8%" height="104.8%" x="-2.4%" y="-2.4%" filterUnits="objectBoundingBox"><feOffset dx="0" dy="0" in="SourceAlpha" result="shadowOffsetOuter1"/><feGaussianBlur in="shadowOffsetOuter1" result="shadowBlurOuter1" stdDeviation="2"/><feColorMatrix in="shadowBlurOuter1" type="matrix" values="0 0 0 0 0 0 0 0 0 0 0 0 0 0 0 0 0 0 0.3 0"/></filter></defs><mask fill="#fff" id="b"><use xlink:href="#a"/></mask><g mask="url(#b)"><use xlink:href="#c" fill="#000" fill-opacity="1" filter="url(#d)"/><use xlink:href="#c" fill="#FFF" fill-rule="evenodd"/></g><path d="M128 7.39c66.67 0 120.61 53.94 120.61 120.61S194.67 248.61 128 248.61 7.4 194.67 7.4 128C7.38 61.33 61.32 7.4 128 7.4Z" fill="#5C5C5E" mask="url(#b)"/><path d="M192.04 181.07c-4.4 13.6-10.97 23.68-20.18 31.14-9.21 7.5-21.5 11.45-36.84 12.77l-3.07-20.18c10.09-1.31 17.54-3.5 22.37-7.01 1.75-1.32 5.26-5.27 5.26-5.27l-36.4-116.66h30.26l21.05 87.28 22.37-87.28h29.39L192.04 181.1ZM86.34 71.86c7.01 0 13.59.88 18.85 3.07a56.68 56.68 0 0 1 16.23 9.65l-12.28 16.67a48.1 48.1 0 0 0-10.09-5.7c-3.07-1.32-7.01-1.76-10.52-1.76-14.92 0-22.37 11.4-22.37 34.65 0 11.84 1.75 20.17 5.7 25 3.95 5.26 9.21 7.45 16.67 7.45 3.5 0 7.01-.43 10.08-1.75a89.91 89.91 0 0 0 10.97-5.7l12.28 17.54c-10.09 8.34-21.5 12.28-34.65 12.28-10.53 0-19.3-2.19-27.2-6.58a44.15 44.15 0 0 1-17.48-19.3c-3.95-8.33-6.15-17.98-6.15-29.38 0-10.96 2.2-21.05 6.14-29.4a46.46 46.46 0 0 1 17.55-20.16 55.63 55.63 0 0 1 26.31-6.58Z" fill="#FFF" mask="url(#b)"/></svg>