<svg xmlns="http://www.w3.org/2000/svg" width="600" height="600"><title>Stylized wooden texture</title><path d="M0 296V-9h600v609H0V296z" fill="#32201B"/><path d="M5 597v-2 4-2zm3-9v-13l1-20a2216 2216 0 0 1 6-164l2-58a3494 3494 0 0 0-5-194l-2-62-1-44L8-9h5l1 20 1 33c2 24 3 41 3 89a3964 3964 0 0 0 5 227 353 353 0 0 0-1 42l-1 5-1 5v4l-1 8-1 16-2 26-2 22-1 59c0 50-1 53-3 53-1 0-2-1-2-12zm10 10v-1l1 1v2l-1-2zm27-10 1-13v24c-1 1-1-2-1-11zm4-30v-54l-1-30-2-30-2-64a6861 6861 0 0 1 3-200c1-3 2-59 2-126 0-55 0-63 2-63s2 4 2 33a286 286 0 0 0 1 69c-1-3-1 4-1 17a289 289 0 0 1 0 28v43a937 937 0 0 1-2 32 402 402 0 0 0-3 68l-1 36c0 30 0 36 2 37l1 13v11l-1-11-1-7a259 259 0 0 0 2 31v-6c2 6 2 19 0 18v30l1 40a804 804 0 0 1 4 37 503 503 0 0 1-1 86l-1-3v3c0 3-1 4-2 4-2 0-2-5-2-42zm6 10-2-21v22l1 21 1-22zm-3-373c0-7 0-12-1-11l-1 24c1 5 1 0 2-13zm1-31c-1-19-1-17-2 4l1 13 1-17zm8 432v-1l-1 1a744 744 0 0 0 0-131l1-5c0-10-1-18-3-15v5c-2-3-1-10 0-10 1 1 1-2 1-6l-1-7c-1 1-2-1-2-3 0-3 1-4 1-2 1 1 2-2 2-9l-1-11-1-9c0-5 0-7-1-6h-1c-1-2 0-4 1-5 2-3 2-21 0-21-1 1-2-2-2-5v-6l1 5c1 5 1 5 1-3l-1-9-1-2c0-3 0-3 1-1s1 1 1-1l-1-3 1-45-1-11v-3l1-2h-1c-1 1-1-1-1-2l1-3c2 0 2-1 0-1l-1-2 1-1c1 1 1 0 1-2s0-2-1-1c-1 2-1 2-1 0l1-3c1-1 2-10 2-23 1-18 0-23-1-23v-6c1-4 1-4 2-2v-15a1392 1392 0 0 1 1-61l-2-1 2-1 1-1-2-3v-1l1-17 1-14 1-2-1-1v-4a258 258 0 0 0-1-49c0-7 0-11 1-9 0 2 1 2 1 0l1-8c0-5 0-6-1-4-1 1-1 0-1-3l2-18c0-3 1-3 4-3l4 1-2 1h-1l1 2 1 10c0 8 0 9-1 6l-1-5v6l1 5h1l-2 1c-2 0-2 0 0 2l2 4c0 2 0 4-1 3l-1 17-1 59-1 43c0 1 0 2-1 1l1 2c2 2 2 5 0 13l-1 10c0 6 0 8-1 6h-1l1 3c2 2 2 5 0 9-2 5-1 7 1 3 3-5 3-4 1 2l-2 15-1 9h-1l1 2v1l-1 5 1 7v31c-1 24 0 27 1 19v79c-1 1 2 9 3 9l1 1-1 1c-2-1-2-1-1 32 0 8 0 10-1 7v4l1 13v5l1-6c0-7 0-7 1 3 0 6 0 9 1 8l2 4v2l-2-3v49c0 3 0 4 2 3v2l-1 7-1 4-1 5v6l1-5 1 29a432 432 0 0 0 1 51c0 5 0 6-1 4-1-3-1-3-1 0 0 2-1 2-3 2-4 0-4 0-4-4zm7-95c-1-1-1 0-1 1 0 2 0 2 1 1v-2zm-7-32c-1-1-1 0-1 2l1 2v-4zm3-65v3-3zm-1-32-1 2h1v-2zm-1-29c-1-2-1 0-1 3l1 2v-5zm2-203-1 2h1v-2zm2-93v3-3zm2-45-1 2h1V2zm8 586v-12l1-19 1-20 1 9 1 2-1-26h1v-1l-2-17-2-12c0 1-1 1-1-1v-2l1-4c0-3 0-5-1-4-2 1-1 0 1-6l1-7-1 1-1 3-2 3v-1l1-4 1-2-1-3-1-14-1-13-1-21-1-26 2-14c1 0 1-4-1-4-1-1-2 0-2 1l-1-5-1-29a1051 1051 0 0 1 0-87l1-42v-9l1-6v-12l1-25 2-8-1-9c-2 0-2-2-1-12a88 88 0 0 1 3-19c-1-1-1 0-2 1 0 3 0 2-1-2l1-5c0 1 2-1 2-3v-2c-2 1-3-14-2-19l1-18a133 133 0 0 1 4-40l-1-12V-5c0-4 0-4 3-4h3L80 6l-2 42 1 7-1 2-1 16a328 328 0 0 1-2 41l1 3a354 354 0 0 0-1 55l1-12 1-18 2-59 1-24 1-16a326 326 0 0 1 2-37V0l1-4c0-4 1-5 2-5a448 448 0 0 0-2 52l-4 74-1 27-1 27-1 22a5522 5522 0 0 0 2 189 969 969 0 0 0 11 91v100l-2 20c0 5-1 7-2 7l-1-4a917 917 0 0 0 2-103l-1-16-1-5v-6l-3-22-2-20-1-3-1-13-1-24c-3-36-3-56-3-130 1-77 0-99-2-51a1495 1495 0 0 0 1 149 863 863 0 0 0 7 113 458 458 0 0 1 5 60 421 421 0 0 1-4 55c0 21 0 20-3 20-2 0-2 0-2-12zm-2-166c-1-2-1-1-1 1s0 2 1 1v-2zm-4-68v-5l-1 10 1-5zm-1-56-1 2c0 1 0 2 1 1v-3zm0-29v-4l-1 5c0 7 1 6 1-1zm4-179v2c0 1 0 1 0 0v-2zm2-34c-1-1-1 0-1 1s0 2 1 1v-2zm27 539c0-3 0-6 1-5v10l-1-5zm6 2c-1-4-1-5 1-12l1-14v-6l1-29a351 351 0 0 1 0-33c-1 0-1-17 1-17v-3l-1-6 1-23 1-19 1-47c0-25 0-46 1-45s1-3 1-8l1-13-1-8v-4l1-2-1 1h-1c-1-1-1 1-2 4-1 5-1 5-2 3l-1-10-1-14c0-6 0-6-2-4-1 2-2 2-2-1l-1-6c-1-1-2-3-1-4s-1-4-2-8l-1-35a180 180 0 0 0-2-33c0-5 0-7 1-6 0 2 0 2 1-1l-1-3-1-2c-1-2 0-2 0 0 1 1 2 0 2-3l-1-4-1-4 1-15 1-13c1-2 2-24 0-25-1-1-1-5 1-6v6l1-3 1-14v-9l1-1-1-2v-6c0-4 1-6 2-5V62c1 2 2-2 2-10l-1-13-1-4c0-3 0-3 1-2 1 2 1 2 1-13l1-13V5l-2 2V6l1-2 1-6 1-7h12l-1 9a729 729 0 0 0 4 140c2 10 3 12 5 9 1-1 1-1 1 1l-1 2-1 1h1l1 1v3l1 2 1 5c1 5 3 7 2 1l1-4 1 1 1 3 1 9 2 13a5248 5248 0 0 0 3 173l1 7v1c-1 2-2 4 0 3l1 9a290 290 0 0 0 5 40c1-4 2-1 2 5s0 6-1 3v1a996 996 0 0 1 6 86c1-4 1-4 1 2-1 5 0 7 1 7v1c-2 1-2 7-1 10 1 1 1 1 1-2v-4l1 6c0 4 0 5-1 3h-1l1 2a352 352 0 0 1 0 48c0 9-1 12-4 12l-3-1-1-1c-1 0-2-1-2-3s0-2 2 0a639 639 0 0 1-1-57 551 551 0 0 0-4-75c0 3 0 3-1 1 0-2-1-1-1 2l1 4c1-1 1 0 1 3-1 4-2 5-2 1l-1-3-1-8v-5c-1 2-1 2-1 0-1-2-2-2-4 3-3 6-4 13-4 22v8c0 1-2 4-2 9l-1 10-4 27-1 9-3 27-2 27h-4c-2 0-4 0-4-2-1-2-1-1-2 1-1 1-1 1-2-2zm5-14-1-4-1 5c0 6 2 5 2-1zm3-5-1 2h1v-2zm0-7-1 2c0 2 0 2 1 1v-3zm1-9c0-3 0-4-1-2v8l1-6zm1-22c1-3 1-3-1-2-2 2-3 4-1 4l2-2zm1-17-1-4-1 6c-1 9 0 14 1 6l1-8zm1-20-1-2c-1 2 0 5 1 5v-3zm-8-13v8-8zm8-6v6-6zm0-12v6-6zm2-23v-6l-1 8c0 8 1 7 1-2zm-5-3v-3l-1 6 1-3zm6-8c-1-1-1 0-1 1s0 2 1 1v-2zm-5-12v6-6zm6-14-1-6-1 11c0 10 0 11 1 6l1-11zm-7-17c-1-1-1 0-1 2l1 1v-3zm2-2v5-5zm5-8c0-2-1-1-1 2l1 3v-5zm-4-6v5-5zm5-1-1 2h1v-2zm3-4c-2-2-2-2-1 1l1 3c0 1 0 1 0 0v-4zm-1-9c0-7-2-6-2 1 0 5 1 6 2 4v-5zm-6-7v2c0 1 0 3 1 2s0-3-1-4zm7-19c-1-3-1-2-1 7v10l1-7v-10zm-7-5v19l1-9-1-10zm9-1c-1-1-1 0-1 2l1 2v-4zm-1-15v-12l-1 12v12l1-12zm-9-4v4-4zm3 2c-1-1-1-1-1 1l1 2v-3zm0-10c-1-1-1 0-1 3l1 2v-5zm7-6h-1l-1 4c0 2 0 2 1 0l1-4zm0-6c-1-1-1 0-1 1s0 2 1 1v-2zm-4-6c-1-2-2 0-1 2h1v-2zm-5-3v2l1 1-1-3zm-1-10-1-6 1 12v-6zm9-9a305 305 0 0 1-2-16v2l-1-6c-1-2-1-3-2-2s1 15 3 16l1 9v7l1-10zm-12 2c-1-1-1 0-1 1l1 2v-3zm-7-13-2-9-1-2c-2 2-4 1-4-2 0-2 0-2-1-1l2 5 1 2c1-3 4 8 4 12l1 2v-7zm8 3c0-4-2-9-2-6l-2 3c-2 1-2 1 0 4 3 3 4 3 4-1zm-6-9v3-3zm-2-10-1 2c0 2 0 2 1 1v-3zm14-23-2-1-1-1c0-2 0-2-1 0v6l2 8c1 12 2 13 2 2v-14zm-18 7-2-2v15c1 2 1 1 2-5v-8zm3 10-1-4c-1 0-2 4-1 6 1 3 2 3 2-2zm8-4 1-6c0-3 0-5-1-4l-1-4c0-5 2-7 4-5 1 1 1 0 1-5s0-5-2-5c-4-1-6 2-4 5v5c0 3-1 3-2 0-2-3-2-3-1 2l1 9 1 3 1 2 1 3h1zm0-23 1-1 2 1-2 2-1-2zm-6-7-1-3v3l1 4v-4zm1-6c-2-2-2-7-1-7l1-1-3-13-1-10v16c0 16 0 16 3 16 1 0 2 0 1-1zm-9-5c0-7-1-7-1 0l1 5v-5zm9 1-1 1c0 2 1 2 1 1v-2zm-5-32v2-2zm2-8-2-2c-1-1-1-1-1 1 1 2 3 3 3 1zm0-11c-1-1-1 0-1 2l1 2v-4zm0-19c-1-3-1-1-1 4l1 5v-9zm1-25c1-5 0-6-1-6l-1 3 1 8c0 7 1 5 1-5zm0-9h-1l-1 1 1 1 1-2zm1-16v9-9zm1-46v9-9zm-2-2c-1-1-1 0-1 3l1 2v-5zm0-8c-1-1-1 0-1 2l1 2v-4zm2-5v5-5zm12 581 2-21a372 372 0 0 0 9-61c1 2 1 2 1-1l1-4 1-7c0-2 1-3 2-2v3l1 4c0 2 1 2 1 0l3 19v81c-2 1-2 0-2-9v-5c1 2 1-12 1-32l-2-36-2-2c-1 1-2 0-2-2l-1 3-1 7-2 15a203 203 0 0 1-6 37c0 6-4 23-5 24l1-11zm5 9c0-3 1-5 3-4s2 1 0 2v1h4l1 1c0 2-1 2-3 2l-3-1h-1c-1 2-1 1-1-1zm9-2v-16c1 1 1 0 2-2v9l-1 13-1-4zm23-4a632 632 0 0 1 3-36 6417 6417 0 0 0-1-59c-1 4-2 2-2-4l1-7v-1c-1-1-2-9-2-30a365 365 0 0 0-9-86c2-1 2-6 0-6l-1-5v-11l-2-14-1-11-1-8-1-17-1-92c1-47 1-54-1-51-1 1-1-2-2-6 0-5-1-8-2-9-2 0-3 3-1 4l1 2c0 1 0 1 0 0l-2-2v2h-1l-5-2-1-2-1-2-2-3-2-8-1-8-2-8v-8c1-3 1-2 1 3l2 10c1 3 2 5 1 6s1 2 1 3c1 3 1 3 3 2h1v3c1 0 2-1 2-4-1 0 0 0 0 0h2v-4l2-3c0-1 0-1 0 0 1 1 4 1 4-1l1 5c2 7 2 7 2-7v-13l1-8a1548 1548 0 0 1 0-89l1 22-1 8v1l1 20v20c1 2 5-7 5-11v-4l1 4c1 2 1 2 2-5l3-31a852 852 0 0 0 3-12v14c1 2 0 2-1 1-1-2-1-2-1 0l-1 13a1198 1198 0 0 0-7 91l-2 3h1v9a1393 1393 0 0 0 4 202l1 2 1 11 2 9 1 3 1 19 2 20 2 10v13l1 13 1 2c0 2 0 3-1 1-1-1-1-1-1 1l1 4s1 1 1-1a606 606 0 0 0 2 43 687 687 0 0 1-5 98l-1-8zm1-101v2h1l-1-2zm-12-360c-1-1-1 0-1 2l1 1v-3zm0-40-1-1-1 2c1 2 2 2 2-1zm18 503 1-10v2l1 5 1-5 1-7c0-4-1-5-2-1-1 2-1 2-1-1 0-2 1-3 2-3 2 0 2-2 2-9s0-9-1-6v-3l2-8 2-6v-5l-1 4c-2 7-3 7-2-1 1-4 0-6-1-6l-1-14c0-11 1-12 1-8l1 12 1 10c2 3 3 3 3-1v-8c-1-2-1-6 1-9s2-26 0-29v-1l1-9c-1-14-1-15-2-14h-1v-26l-1-5v4c-1 4-1 4-1 1l-1-7v-2c1 1 2 0 2-5v-3c1 2 1 3 2 2s1 4 1 11l2 27 2 30 1 14c2 0 2 1 2 5l-1 4-1-5c0-6-1-3-2 7l1 9v11c-1 2-1 1-1-3 1-5 0-6-1-3l-1 12-1 9c-2 5-2 13-1 14v1c-2-1-3 6-2 11v5c-1 0-2 3-2 7l-2 10c-1 2-1 2-1-2v-5l-1 5c-1 4-1 4-1-2zm8 3 4-28c3-2 3 0 2 5l-2 8-1 4-1 5-1 7c-1 3-1 3-1-1zm4 0 2-12 3-19 1-10c2 3 3-2 3-10 0-5-1-8-2-8l-1-5v-5l1-4v-6l1-7v-6l2 1v9l-1 22 2-3a477 477 0 0 0-3-116l-2-4-1-4v-1c1 1 1 1 1-1l-1-3-2-6c-1-7-2-8-3-3s-3 4-3-3l-2-12c-1-3 0-5 1-4v-18c-1-3-1-3-2 1l-1 2c-1 1-1-3-1-10l-1-2v-6c1-1 2 2 2 5 0 4 1 6 2 5 1-2-2-13-4-14s-4-8-2-12c0-2 1-1 1 4l1 6c2 0 2-3 1-9l-2-15-2-23-2-21-1-5 1-27a898 898 0 0 0 1-86l1-2h-2c-1 1-1 0-1-1 0-2 1-2 2-1v-3l-1-9c0-4 0-5-1-3-2 1-2 3-2 6l-1 4c-1 0 0-28 2-33l1-17c1-11 2-3 2 9 0 8 0 9 1 8 2-1 2-4 2-9V79a233 233 0 0 0 0-52 318 318 0 0 0 4-21v6c-2 8-2 12-1 13 1 0 2-1 2-3l1-8 1-4 2-18 4-1h5l-1 5v6l2 2h-1c-1-1-2-1-2 1l1 4 1 2-2-1c-1-1-2 0-2 3a120 120 0 0 0-3 36c-1 0-3 10-3 28l-1 9s-2 12-2 26l-1 32a1164 1164 0 0 0 1 133c1 10 2 15 4 13l1 1-1 1c-2 1-2 3-2 13a281 281 0 0 0 6 36c1-1 3 4 2 7 0 3 0 4 2 4l1 2c-1 1 0 2 1 2l1 2 1 3 2 7a181 181 0 0 0 2 11l1 9c0 2 0 3 1 2v6c1 2 1 2 2 1l1-3v-2c2 0 2 6 0 6l-2 6c0 7 2 17 2 13l1-1v4l-1 14a483 483 0 0 1 0 100h-1c-1-2-2 2-2 7l-1 4-1 10c0 6-1 7-2 6v2l1 1c-1 0-2 2-2 8l-1 10-1 4-1 8-1 6h-4c-5 0-5 0-4-3zm10-185-2-4c-1 3 1 10 2 10v-6zm-11-22-1 2 1 2v-4zm-1-8c-1-1-1 0-1 2 0 3 0 4 1 2v-4zm5-36v-2l-1 2c0 3 0 2 1 0zm-19-222c-1-1-1 0-1 2l1 1v-3zm4-2c1-5-1-7-2-2l1 8 1-6zm1-9-1-1-1 2c0 1 0 2 1 1l1-2zm56 476 1-15 1-18 1-24 2-50c0-84 0-125-2-148l-2-20c0-2 0-1-1 1l-1-9c0-21-2-29-4-14a609 609 0 0 1-6 29c0 3-3 2-4-1l-6-21-8-63c0-2-2-1-3 1-1 1 0 3 1 5l1 2-3-2c-2-5 0-67 2-85l2-21 3-10c1-3 4-10 4-15l5-24c3-1 7-13 5-13l-1-3c0-2 0-3 1-2s1-1 2-6l1-11c3-16 5-43 4-42l-3 12-3 19c0 5-2 9-3 10-2 2-2 4 0 2l1 2-2 6c0 3-1 5-2 4v-5c1-4 1-5-1-4l-2 3-1 17c-2 1-2-7-1-15l3-8c1 0 3-1 3-3s1-2 2-1l1-2c0-3 0-3-1-1l-2 1 1-4 3-5a266 266 0 0 1 6-31l1 2 3-9c1-8 2-9 4-9s3 0 2 4a261 261 0 0 0-3 24 213 213 0 0 0-1 11 722 722 0 0 1-6 53l1-2c0-2 1-2 1 0 1 2 2 2 2-1l1-3c1 1 1 1 0 0V57c1 1 2-7 2-12l2-7 3-16 2-15c0-2 0-2-1-1s-1 2-1-1c0-2 0-3 2-3 1 1 1 0 2-5 0-6 0-6 1-2v4l1-4c0-3 0-4 2-4s2 1 2 5l-1 5 2-5c1-5 1-5 4-5 4 0 4 0 3 3v3s2-1 2-3c1-3 2-3 7-3s6 0 6 3v23a618 618 0 0 0 6 58c1 0 1 4-1 6-1 1-1 2 1 1 1-1 2 0 1 2l2 4v3l1 4 1 5 1 15 2 27a78 78 0 0 0 2 19h-1c-1-2-1 0-2 6v12s-2 1-2 3 1 2 2 1c1-2 1-2 1 0l-2 2c-2 0-2 0-1 1l1 2-2 1-1 3-1 8c-2 3-2 8-1 8l-1 1c-3 2-4 13-2 15s2 3 0 2-3 1-2 7c0 2 0 2-2-1-1-3-1-4 1-6v-3l-1-4c-1-3-1-3-1 1l-1 5-1-7c-1-4 0-6 1-7s1-1-1-2l-1-5-2-20-4-27c-2-21-3-24-4-23-2 1-2 7-1 9 2 2 2 3 0 5l-3 4v1c2-1 2-1 2 1 0 1-1 2-2 1l-1 7v6l-1 2c0 1-1 2-2 1v1a17 17 0 0 1 1 4c0 2 0 1 1-1v12c0 5-1 5-1 3l-1-8-1-7v-6c2-5 1-14-1-14-2-1-3 6-3 14l-1 6-1 25c0 13 0 24 1 23 0-1 1-1 1 2l-1 5c-1 2-1 3 1 7 2 2 2 5 2 8v2c1-2 1 7 2 105l1 83v6c0 2 1 3 2 3l1 1-1 1-1 2a567 567 0 0 1 4 86v66l-2-24c0-7-1-9-1-5v29l-2-4v-3 3c-1 4-1 4-4 4s-3 0-2-5c4-24 5-54 3-74l-3-19-1-6c0-1 0 0 0 0l2-2h-1c-1 0-2-4-2-13v-13l-1 10 1 34 2 28a362 362 0 0 1-6 53c-1 7-1 7-3 7-3 0-3 0-2-11zm2 3-1 2 1 1v-3zm18-46c-1-1-1 0-1 2l1 3v-5zm-1-14v1c0 2 0 2 1 1l-1-2zm-3-11v4-4zm2-6v5-5zm-1-17v5-5zm-6-11v3-3zm5-1-1 2 1 1v-3zm-7-38-1-19v38l1-19zm5 11c-1-1-1 0-1 3l1 2v-5zm-2-12v2h1l-1-2zm0-23v2c0 1 0 2 1 1l-1-3zm-2-50a521 521 0 0 0-5-111 792 792 0 0 0-5-63c-1 0-3 11-3 18l-3 20-3 13-1 10c-1 2-2 1-2-4 0-9-1-16-3-16-1 0-2-1-1-4v-5l-2 3-2 3v-3l-1-4-1 2v1l-1-18c0-10-1-18-2-19v-1l1-1v-2l2-14c1-13 1-16 3-22 1-3 2-4 3-3l1-4 3-15 1 3 1 2c-1 2 0 2 1 2 2-1 3-14 1-17h1c1 0 2-5 2-11 0-3-2-4-2-1-1 1-1 0-1-2l2-6 1-3 1-10v-7h-2c-2-1-2 2-3 12-2 15-2 18-4 20l-4 21-1 2-2 4-2 8a308 308 0 0 0-3 21l-2 19a133 133 0 0 0 2 30c0 10 2 24 4 35 2 6 4 10 6 9v1c-2 1-2 3-1 6l1 2 1-2 1 1 1 7c1 0 2-3 4-15l7-34c2-4 3 0 4 33a342 342 0 0 0 3 40l2 21 1 55a693 693 0 0 0 1-7zm-22-108-1-2 2 2c0 3 0 3-1 0zm-8-20 1-3c1-1 1-1 1 2s0 4-2 1zm33 128c-1-2-1 0-1 11v14l1-11v-14zm-1-58v2h1l-1-2zm0-6v3-3zm1-15c0-8-1-8-1 0 0 5 0 8 1 7v-7zm-1-12v3-3zm0-16v-4l-1 11 1-7zm-3-9-1 1c0 2 1 2 1 1v-2zm-1-14-1 2 1 2v-4zm4-5v3-3zm-5-1h-1l1 2h1l-1-2zm-23-9c-1-2-2-1-1 0l2 2-1-2zm3-4c-1-1-1 0-1 1s0 2 1 1v-2zm57-33c0-5 0-7-1-5l-1 3-2-3c-1-2-1-2-1 2l1 4c1-1 1 0 1 6 0 2 0 3 1 2l2-9zm-37-6c0-10-1-13-2-13l-1 5 1 12 1 9 1-13zm39-3-1-3c1-1 1-1 0 0-2 2-1 4 1 4v-1zm-8-12c-2-1-2 5-1 9 1 3 1 2 1-2v-7zm-50 3-1-2-1 2 1 1 1-1zm60-5c0 2 0 3 1 1v-6c-1-4-1-5-2-2l-1 9v5l1-5c1-5 1-5 1-2zm-13 0c-1-1-1 0-1 2l1 2v-4zm-54 0-1 2c0 2 1 2 1 1v-3zm22-6-1-12c0-2 0-3-1-2s-1 9 1 19c1 7 2 4 1-5zm-10 2-1 2h1v-2zm44-7-2-12v12l2 10v-10zm-29 5c-1-1-1 0-1 2l1 1v-3zm40-7c-1-1-1 0-1 1s0 2 1 1v-2zm-40-7c-1-1-1 0-1 4v5l1-4v-5zm14-5c-1-1-1 0-1 1 0 2 1 2 1 1v-2zm26-8c0-12-1-12-1-1 0 8 0 11 2 11l-1-10zm-42-8c3 0 3-2 0-3v-2c1-2 1-20-1-23l1-1 1-11c0-10 1-22 3-30 0-2 0-1-2 2l-2 12-1 11v11h-1l1 2v2c-1 2-2 4-1 6 0 2 0 4-2 6-2 3-2 9 0 12s2 6 0 6c-1 0-2 2-1 8v8l2-7c1-6 1-8 3-9zm-1-1 1-2 1 1-1 1h-1zm-3-13 1-1v2c0 1-1 1-1-1zm6 22-1 3c0 3 1 4 1 2v-5zm2-3v6-6zm24-11c0-7-1-8-1-4l-1 6-1 3c0 1 0 3 1 2s1 1 1 2v2l1-11zm-38 2v1l1 3v-1l-1-3zm52-1-1-4-1-7-1-4-2-3-2-3 2 8 2 8c1 6 2 7 3 5zm-16-26v-7l-2 8c0 9 2 9 2-1zm-44 2h-1c-2 1-3 1-1 1l2-1zm53-2c-1-1-1-1-1 1l1 2v-3zm-16-5v3-3zm17 1h-2c-2 1-2 1 0 1l2-1zm-1-10-1-2-1 5c0 3 0 4 1 2l1-5zm-12 3 2 3c2 0 2-1 1-4-2-4-5-3-5 1v3l1-3c1-3 1-3 1 0zm-19-5v3-3zm23-6c1-1 0-2-1-4-2-1-2-2 0-3v-1c-2 0-2-7 0-7V50l-1-16c1-5 1-5 2-2l1-11c-1-15-2-20-3-8v10a616 616 0 0 0 0 56l2-4zm-20-5c-1-2-1-2-1 1l-2 6h1c1 0 2 0 2 2l1-3c1-3 0-5-1-6zm27 5-2-8c-1-2-1-2 1-2 1 1 1 1 0 0l-1-7c-2-19-4-29-3-13l1 10 1 12 2 13 1-5zm-39-7-1 1-1 4 1-1 1-4zm26-5c-1-1-1 0-1 2l1 2v-4zm-15-11-1-3-1 3c-1 2 0 2 1 2l1-2zm0-13v3-3zm1-9-1-5v5c0 8 1 8 1 0zm2-16 1-7c0-1 0-2-1-1l-2 8c0 7 1 7 2 0zm11-8c0-5-1-8-2-4h1c0-2 1-1 1 2s-1 4-1 2c-1-1-1 0-1 2a149 149 0 0 1 1 7c0 3 0 2 1-1V6zm10 2-1 3c0 2 1 2 1 1V8zm-1-10c-1-1-1 0-1 3l1 2v-5zm-4-1v3-3zm-4 592v-11l3-20c-1-4 0-4 1-2 3 2 3 2 2-3l1-6 1 9c0 10 1 13 3 11l1 2-1 2-2 5 1 5 1-5v-4l1 5-1 5 1 17c1 1-1 1-6 1h-6v-11zm15 10v-21a275 275 0 0 0-10-71v-5h-1c-3 2-4-6-5-30a387 387 0 0 0-5-64 864 864 0 0 1 0-151 717 717 0 0 0 5-57c1-3 1-3 1 3 2 12 2 14 4 17l1 6 1 5 2 16 2 15c1 3 1 3 3-3 3-7 4-15 5-19l2-12 3-12 2-4 1-2v-2h3c2-1 4 11 4 33l2 25c1 6 2 32 2 72a2883 2883 0 0 0 5 205v23l-1-22-2-38c-2-51-3-66-3-120l-1-70-3-41v-16l-2-14-2-7c1-2-1-9-3-10v1l-1 2c-1 0-2 3-2 8l-3 12-2 12-2 9-3 6-1 4-1-4-2-6c0-5-4-22-5-22v3c1 2 0 2-1 2l-2 6-1 13-2 15-1 11a659 659 0 0 0 4 142l2 19 1 11 2 10 1 6 2 9a403 403 0 0 1 8 103l-1-1zm27-8-1-17 1-6 1 17c0 13 0 14-1 6zm3-24-1-39-1-40-1-42-2-89-1-85a631 631 0 0 1 0-67l3-24 4-45c3-44 3-102 0-138-1-7-1-7 2-7h3l1 29v29-29l1-29h3c2 0 2 0 2 2l-2 1c-1-1-1-2-1 55l1 92c2-2 2 0 0 3l-1 20-2 26-1 22-1 13a624 624 0 0 0 1 59l1-12 1-3c1-2 1-1 1 1l-1 5-1 9c0 6 0 9-2 12s-2 8-1 78l1 84 1 26 1 29a1204 1204 0 0 1-1 79v-8 8c-1 9-2 11-3 4l-1-3v3l-1 4-2-33zm4 22-1-1-1 2h1l1-1zm3-15c-1-5-2-2-1 4l1 2v-6zm-4 0c-1-1-1 0-1 3l1 2v-5zm4-16-4-69c-1-2-1-1-1 5l2 41 3 36v-13zm-6-18v2-2zm0-10v3-3zm-1-26v3-3zm0-13v7-7zm3-20c0-9 0-11-1-7s0 20 1 20v-13zm-4 2-1 2 1 1v-3zm0-6-1 2 1 1v-3zm0-9v4-4zm3-8-1-1v1l1 2v-2zm0-24-1-22v20a554 554 0 0 0 1 2zm-3 16-1 2 1 1v-3zm0-7v4-4zm0-7-1 2h1v-2zm0-20v8-8zm0-12v4-4zm2-1v4-4zm0-10v4-4zm2-8h-1l-1 3c0 3 0 3 1 1l1-4zm-4-6v6-6zm4-22a1160 1160 0 0 1-4-43l-2-4-1 5 1 8v4l1-4c1-3 1-3 1 2a868 868 0 0 0 4 32zm-1-126 2-20a487 487 0 0 1 0-20c-2 3-5 56-4 82v24l1-27 1-39zm-5 43-1 4c0 4 1 5 1 3v-7zm0-18-1 2c0 1 0 2 1 1v-3zm0-18-1-5c-1-1-1 0-1 3l1 5 1 2v-5zm1-24-1 2 1 2v-4zm1-3-1-1-1 1 1 1 1-1zm6-30v-7l-1 6 1 8v-7zm-4 2v2-2zm6-30c0-7 0-12-1-11l-1 16v12l2-17zm-4 11c0-5-1-3-2 2 0 4 0 4 1 3l1-5zm1-19c-1-1-1 0-1 2l1 1v-3zm4-43a452 452 0 0 0-3 21c-1 1-1 1 0 0 1 0 2 1 2 7v8l1-36zm-3-85c0-7 0-10-1-9l1 20V9zm6 580c0-7 1-12 2-12 1 1 1 18-1 21l-1-9zm10 10v-2 2c0 1 0 1 0 0zm2-2-1-4v-12l-1-9v-29c-2-2-2-3-1-3 2-1 2-16 1-16l-1-9-1-11v-1a12975 12975 0 0 1 2-203l3-33-1-3v-3l3-18 2-13v-11c1-2 2-15 0-15v-1c2-1 2-7 2-53 1-24 0-50-2-63a1276 1276 0 0 1-2-96h3v8l1 7V5h1c2 1 1 6-1 5l-1 1a327 327 0 0 1 3 49l1 12 1 34 1 31c0 9 0 9 1 3 1-7 1-6 1 3 0 6 0 10-1 9s-1 14-1 32a1280 1280 0 0 1 0 66c2 0 2-2 2-17 0-5 0-5 1-2l3 11v-17c0-13 0-22 1-20l1-33c0-29 0-37-2-37v-1c1-1 2-2 1-4v-18l-1-7c-1 5-1 6-1 2l-2-7c-2-3-3-17-2-18s1 1 1 2c0 3 1 2 1-2l1-6v7c0 4 0 7-1 6v2l1 3c1 1 1-2 1-9 0-11-1-28-2-22 0 3 0 3-1 1s-1-2-1 1v3l-2-12 2-2c2 0 2-2 2-8 0-8 0-8-1-3-1 4-1-1-1-10V21c-1 2-1 3-1 1-1-1-1-1-2 2 0 3 0 3-1-2l1-4c2 2 3-8 3-19 0-6 0-8 2-8l1 1v4c1 3 1 3 1-1l1-3 2 25 1 4 1 7v8l1 8 1 18 1 18-1 7c-1-1-1 1 1 4v3l-2 3h2c0-2 1-1 1 2s0 3 1 1c1-1 1-1 1 1l-1 2-1 30 1 29v3l-1 18c0 13-1 16-2 15l-1 2c0 2 1 2 2 2a303 303 0 0 1-2 58l1 6-1 21-2 26-1 24-1 51-2 15c0 5 0 8-1 7v27l-2-3c0-1 0-2-1-1s0 2 1 5l2 4a1866 1866 0 0 0 2 145v13h-6v-12l-1-11-1-14c1-11 0-15-1-15l-1-2c0-2 0-2 1 0a735 735 0 0 1 0-47 284 284 0 0 0-2-50v-6l1 5c1 3 1-1 1-11 0-14 0-16-1-8l-1 10v-12c0-7 0-11 1-9 1 1 1 1 1-4l-1-5c-1 1-1 0-1-4l1-8c0-2 0-2 1 0 1 1 1-7 2-19a325 325 0 0 1 1-24c-1 1-1 0-1-5 0-7 0-8 1-2l1-6a412 412 0 0 0 3-69c1 2 1 0 1-6v-9l-1-11v-2c-1 9-2 11-4 8l-2-1c-1 2-2 18 0 19 1 2 0 22-2 27v-4c0-7 0-7-1-2-2 10-3 29-1 30l1 3-1 2-1-3c1-2 1-2 0 0v11a162 162 0 0 0-2 38v41a869 869 0 0 1-1 66l1 14v14c1 0 2-2 2-6s1-1 1 7v20l-1 3 1 2 1 10v10l-1-9-1-10-1 9a99 99 0 0 0 1 35l1 3 1-14v-13l1 15c1 12 1 13-1 13s-2 2-2 9c0 8-1 9-3 9-1 0-2-1-2-3zm14-53c-1-1-1 4-1 10v11l1-9v-12zm-9-16v-11l-2-7-1 16 1 9c0-4 1-7 2-7zm8-12v-6l-1 9c0 8 0 7 1-3zm-1-15v4-4zm-10-52-1 1 1 2v-3zm12-33-1 2h1v-2zm1-16v2l1 1-1-3zm0-8-1 2c0 1 0 2 1 1v-3zm1-19-1 2c0 2 1 2 1 1v-3zm3-64v2c0 1 0 1 0 0v-2zm2-4-1-1-1 1 2 1v-1zm0-12v-2l-2 2c-1 1 0 1 1 1l1-1zm-12-16v-5l-1 12 1-7zm12-6v-4l-1 3c0 5 1 5 1 1zm1-31-1 2 1 2v-4zm2-35-1-1-1 1 1 1 1-1zm-1-18-1 2 1 2v-4zm0-77v5-5zm-7-14c-1-1-2 0-1 3 1 2 1 2 1 0v-3zm6-4-1 2c0 1 0 2 1 1v-3zm0-19-1 7v9l1-7v-9zm-1-9-1 2c0 2 0 2 1 1v-3zm-7-6c0-2 0-3-1-2l-1 4c1 2 2 1 2-2zm5-15v3-3zm1-7h-1l-1 1h1l1-1zm-2-21v2c0 1 0 1 0 0v-2zm-12 580 1-5 1-3c-1-2-1-2 1-2l1 1-1 8c0 7 0 7-1 2v-6l-1 6-1 5v-6zm18-5v-9l1 8v10l-1-9zm24 8c0-3 0-3 1-1s1 2 1-2l-1-9c-1-3-2-5-1-10v-10l-1-4h-1l-1 1v2c-1 0-3-12-4-33l-1-17-2-22a2307 2307 0 0 1 0-190l1-34 2-46 2-39 1-31a3332 3332 0 0 1 4-131c-2 0-1-5 1-13V1l-1-5c0-5 0-5 3-5h3v9a309 309 0 0 1-3 47l-1 20-1 25-3 54a3254 3254 0 0 0-4 126c-3 35-3 155 0 208l1 21c0 16 1 23 3 24 1 1 2-3 1-6s1-11 2-10l1 5c0 4 0 4-1 2l-1-3v3l2 7c2 3 2 5 1 7v4h2v-1 3l-1 1c2-1 2 5 2 19l1 5 1 15-1 11c-1-1-1 1-1 5l1 6 1 1-4 1c-3 0-4 0-4-2zm7-29c-1-1-1 0-1 2l1 1v-3zm0-6c-1-1-1 0-1 1s0 2 1 1v-2zm-8-6c0-3-2-3-2-1l1 3 1-2zm13 38a474 474 0 0 0-4-101c-2 1-4-5-3-10 0-6 0-10-2-9-1 1-1 0-1-9 0-3 0-5-1-4-1 2-1 0-3-14a1213 1213 0 0 1-1-193c1-31 2-43 3-42l1 61 1 110 1 22 2 16c1 7 1 8 2 6 1-3 1-3 1 1l-1 9c0 1 0 2 1 1h1c-1 2 0 13 2 13v-4c2 2 2 5 0 5l1 1v1l1 1c1 1 3 7 1 7l-1 2h1c1-1 2 3 1 4s0 15 1 14l1 7v7l2 1-2 1v1l1 11a2065 2065 0 0 0-3 88c-3 2-3 1-3-4zm3-109-1-7c0-2 0-3-1-2v9l1 2v2l1-4zm-6-27v-5l-1 5v4l1-4zm-2-5-1 2h1v-2zm0-12-1 2c0 1 0 2 1 1v-3zm-7-93-1-14-1 20c0 12 0 17 1 14l1-20zm0-90c-1-1-1 0-1 2l1 2v-4zm21 339 1-46 1-50v-26l2-1-2-1v-2l-1-2-1-1 1-2 1-1a166 166 0 0 1-5-33l-1-7-1-7-2-1h1l1-2-2-1-1-4-2-11-2-11-1-10-2-36-1-33c-1-1 0-1 1-2v-1l-1-4v-6l1 5 1 4v-4l-1-4c-1-1-2-10 0-11l1-10v-8l-1 9c-1 7-1 5-1-9l1-19v-5c-1 0-2-7-2-18 0-15 0-18 2-18v-22l1-15 1-11a421 421 0 0 1 6-76l1-13 1-3 1 3v-3c0-2 0-5-2-6s-1-2 0-1c1 0 2-2 1-7l2-8 1-15 2-21 1-16v-4l2 4v4-4c1-4 1-4 5-4h4V9l1-7c0-7 1-8 1-4V8l-1 3c0-1-1-1-1 1l-1 17c0 9 0 13-1 11l1 19-1-1-1-5-1 7a423 423 0 0 0-2 27c-2 2-3 9-1 8l1 1c0 2-1 2-2 2-2-1-4 11-3 16l-1 3c-1-1-1-1-1 1l-1 4v6l-1 4v3l-1 11-1 18-1 10c-1 2 0 2 1 2l1-1 1-2c0-1 1-1 1 1l-1 6c-1 1-1 1-2-1-2-2-2-1-1 4l-1 6-1 52a294 294 0 0 0 3 60l-1 13c2 16 2 22 4 22l1 1c1 2 1 2-1 1v3l2 6v-5l1 8c-1 6-1 6 1 2l1-3v4l-1 4h-1l2 2 1 14 2 15v9l1 7c1 1 1 0 1-2l1-4 1 3v6c-1 3-1 3-2 2l-1-1 1 2 1 5c0 2 0 3-1 2v2c2 1 2 2 0 1v2l1 13c0 7 0 9 1 6v8c-1 14 1 34 2 33l2-2c0-5 1-4 1 1 0 3 0 5-1 4l-2 1c-1 1 0 1 1 1a800 800 0 0 0 2 90v5l-1-4-1-3v18l1-1v6c0 2 0 2-5 2h-5l-1-8v-9 9l-2 8-1-2zm3-25v3-3zm0-26v4-4zm-1-95v6-6zm-1-11c0-4-1-7-2-7v3l1 8 1 2v-6zm4-18v2l1 1-1-3zm-9-16-1-5-1-3c-1-3-1-3 0 0l2 13v-5zm-5-18v3-3zm9-342-1-1v3s2-1 1-2zm1-8c0-3 0-4-1-2v7l1-5zm18 477v-82c-1 4-3 2-3-3a643 643 0 0 0 0-27v-47l-1-28-2-30a972 972 0 0 1 0-141l5-76 1-18 2-20c0-7 0-8-2-7l-1-1 1-1v-2c-1-2-2-10 0-12 1-2 1-1 1 2v7c1 1 1-6 1-19 0-18 0-20 2-20s2 3 1 32l-3 77a2671 2671 0 0 0-3 232l4 112 2 102c1 51 1 54-1 54-1 0-2 0-1-1s0-1-1-2-1 1-1 2l-1-83zm3 58v-20s-2 9-2 21c0 13 0 21 1 20l1-21zm-1-61v-36a576 576 0 0 0 0 36zm-2-91c-1-10-1-11-1-1 0 6 0 9 2 9l-1-8zm-1-13v2c0 1 0 1 0 0v-2zm39 185v-3 7-4zm6 1a164 164 0 0 1 1-44 358 358 0 0 1 2-44l4-36 1-12c-1-2-1-2 0 0 1 1 2 1 2-1 0-1 1-4 3-5l2-3 1 3 1 7 1 8 2 8c1 7 1 7 2 3v-4 9l-1 7v49c1 1 1 1 0 0-2-1-3 4-4 28l-1 26-1 6h-14l-1-5zm27 0a733 733 0 0 1 4-48c1-13 2-17 2-10l1 8-1 3-1 11a182 182 0 0 1-5 41v-5zm28 4-1-13c0-8 1-11 2-13 2-1 2-1 2 4-1 4-1 5-1 1-1-3-1-3-1 1-1 3 0 4 1 4v8c-1 9-1 10-2 8zm9-8-1-20a370 370 0 0 1 0-33l-1-2c0-2 1-3 2-1l1-13-1-13c-1 1-1-1-1-6v-2c1 3 2-6 3-20 1-25 1-28 3-29v-31c1 1 1-1 1-8a949 949 0 0 1 4-85 1420 1420 0 0 0-6-200l-3-12-2-18V23c1-34 0-32 3-32 2 0 2 1 3 5a443 443 0 0 1-1 58v17c1-2 1 0 1 4l1 11 1 7 1 4v4l1 3c1-1 1 0 1 3l1 11v11l2 21a3422 3422 0 0 1 0 302 606 606 0 0 1-4 70c-2 4-4 30-4 61 0 17 0 17-3 17-2 0-2-1-2-9zm8-6 3-37 2 2v3c2 2 2-1 4-19l1-10 1 9c0 6 0 9 1 7 1-4 1-22-1-19-1 2-1 2-1-15v-27l-1-150V228l1-52c1 1 2 126 1 179l1 84a107 107 0 0 1-1 19c2-1 2-5 2 56a851 851 0 0 1-3 76c-1 9-2 10-3 10-2 0-2-1-2-2l1-1v-11c-1-6-3-3-3 6 0 7 0 8-2 8l-1-15zm6-9v2c0 2 0 3 1 2s0-3-1-4zm2-5 1-8c0-4 0-5-1-2-2 4-2 13-1 13l1-3zm4-16-2-1-1 1 1 1 2-1zm0-44v3-3zm0-5v3-3zm-2-71-1 2h1v-2zm13 164 1-2v2h-1zm6-26v-31c0-3 0-3-1-1v9c0 4 0 5-1 3-1-1-1 0-1 7l-1 14a577 577 0 0 0 3-85c0 11 0 12 2 12s2 0 1-1l-2-3 1 1c1 1 1-16 1-50a372 372 0 0 0-1-56 347 347 0 0 0-4-65l1-7-1-6-1 5c0 2 0 4-1 3l-1 3-1 3-1 1v2c-1 2-1 0-1-4 0-6 0-6 1-3s1 3 2-3v-9c-1-2-1-3 2-2 1 0 0-13-2-15v-3c2 0 2-6 0-6l-1-14c0-4 1-4 1 3 1 4 1 2 1-9l-2-19c-1-5 0-12 1-15l2-8a521 521 0 0 0-1-69c1 0 2-3 2-8v-36a157 157 0 0 0 0-30l1-15c0-13-1-17-2-17v-1c2-1 2-4 2-15l1-13h1c0-1-1-2-2-1l-3-1 2-2 1-3c1-4 0-4-1 0l-1 2-1-2c0-2 0-3 2-4 2 0 3-3 0-3l-2-1h2c2 0 2-1 2-7v-7h14c15 0 15 0 14 5l1 1 1-3c0-3 1-3 8-3s8 0 8 3c-1 2-1 2-2 0 0-2-1-1-1 2l1 3c1-2 2-2 2 1l-2 3-1 2c0 2 1 2 1 0 1-1 2-1 2 1s-1 3-2 2-1 10-1 41c0 21 1 31 3 33v6c-1 1-2 6-2 14-1 10 0 13 1 12v8c-1 8 0 11 1 11v9a8413 8413 0 0 1 2 355 1 1 0 0 1-1 1l-1 7c0 5 0 7-1 6v8l1 7 1 3h-1l-1 22c0 12 0 24 1 23s1 2 1 4c0 3-1 4-2 4l1 1v1l-1 4c0 2 0 4-1 3s-1 2-1 4v5h-13v-7l-1-7-1 7v7h-27v-27zm20 20c1-4 2-8 0-8v2c1 1 0 3-1 5h-1c0-5-2-3-2 2-1 4 0 5 1 4l3-5zm0-13-1-2-1 3 1 1 1-2zm24-3v2-2zm-22-2c-2-2-2-2-1 1l2 1-1-2zm4-5-1-8v-3l-2 3c0 4 0 4-1 2s-1-2-1 0l1 3 1 4v1c1-3 1-3 2 1 1 2 1 4 2 3s0-3-1-6zm-4-13-1 2c0 2 1 2 1 1v-3zm5-7-1-1-2 2c-1 1 0 2 1 1l2-2zm-27-17c-1-1-1 0-1 2l1 2v-4zm2-4v4-4zm-1-7v-5l1-7-1-4 1-1-1-2c-2 1-2 4-2 13s0 12 1 10l1-4zm-1-8c0-1 0-2 1-1v2l-1-1zm16-69-1 1 1 1v-2zm-6-51c0-1-1-2-2-1v1c1 2 2 2 2 0zm-3-26c-1-1-1 0-1 2l1 1v-3zm20-35c-1-1-1 0-1 1 0 2 0 2 1 1v-2zm5-10v2c0 1 0 2 1 1l-1-3zm-9-3-1 1 1 1v-2zm7-9v1l-2 2v6c1 1 3-8 2-9zm-7-6-1 2 1 1v-3zm8-3c-1-8-2-8-2 0l1 6 1-6zm-4-5c-1-2-1-1-1 2l1 6 1-2-1-6zm-7-3c-1-1-1 0-1 2l1 1v-3zm5 0c1-3-1-4-2-1 0 2 0 6 1 5l1-4zm5-3c1-5 0-5-1 0v3l1-3zm-7-8v5-5zm10 0-1 2c0 2 0 2 1 1v-3zm-12-12-1-5v8c0 5 1 2 1-3zm8-6c0-6 0-7-1-6s-1 0-1-4l1-4 1-4 1-6c1-1 1-1-1-1v-2c2 0 2-1 1-1l-2-2 1-1s2 0 2-2v-11l-1-38-1-52 1-17c1 0 1 0 0 0l-1-5c0-3 0-4-1-2v-6l-1-9-1-11v-7c-1 2-1 1-1-3l1-11v-5l-1-2v-3c-1-1-2-8-2-21 0-5 0-6-2-6l-3 3v1c1-1 1 0 1 1h1l1 2-2 6c0 4 0 3-1-2-1-4-1-1-1 8s0 13 1 12v17l-1 6v-5c-1-4-1 0-1 11l-1 21v29a360 360 0 0 0 3 60l1 15v7c0 3 0 4 1 3 1-2 2 9 2 21v5l1 9v7c1-2 2-2 2 0v4c-1 3 1 11 2 9l2-8zm-5-12v-1 2-1zm0-27c-1-1-1-4 1-4l1-1c1-1 1-1 1 1 0 3-1 5-3 4zm2-13v-3l1 3v3l-1-3zm-3-1v-1 3-2zm-1-7v-3c1-1 2 0 2 2 0 3-1 3-2 1zm5-6 1-2v2h-1zm-1-7c0-2 0-2 1-1v3l-1-2zm0-7c0-2 0-3 1-2v4l-1-2zm-1-7 1-2 1 2-1 2-1-2zm2-6-1-2c1-1 3 0 2 2h-1zm0-6v-3l1 4c0 1-1 1-1-1zm-7-9v-10l1 9v10l-1-9zm6-5c0-1 0-2 1-1v2c-1 1-1 1-1-1zm-8-20 1-13v11l-1 12v-10zm8 8c0-1 0-2 1-1v2c-1 1-1 1-1-1zm-1-16-1-6 2-4v11l-1-1zm-6-12c0-2 0-3 1-2v4c0 1-1 1-1-2zm1-6c-2-1-2-8 1-8l1 4v4a49 49 0 0 1-2 0zm1-13V79c2 0 3 10 2 14-1 3-1 3-2 0zm-1-68 1-1 1 1-1 2-1-2zm14 240-1 1h-1l-1-1c-1 1 1 3 2 3l1-3zm-14-12c-1-1-1 0-1 2l1 2v-4zm14-6c-1-9-1-9-1-2l-1 10 1 1h1v1-10zm-16-7v2h1l-1-2zm-15-16v3-3zm32 2-1-3v6l1-3zm-18-3v3-3zm1-5-1-3-1 3c0 4 2 4 2 0zm17 3-2-2v2l1 1 1-1zm-18-15c0-3-1-5-2-5h-1v1l1 6c1 6 2 5 2-2zm17-6c-1-1-1 0-1 2l1 2v-4zm-20-26c-1-1-1-1-1 1l1 11c1 6 1 6 1-2l-1-10zm20 2h-1l-1 2h1l1-2zm-2-19v1c0 2 0 2 1 1l-1-2zm12-18v2-2zm-12-2c-1-1-1-1-1 1 1 1 1 2 2 1s0-1-1-2zm12-3v2c0 1 0 1 0 0v-2zm-11-3c0-2 0-2-1-1-2 2-2 4 0 4l1-3zm-23-6v2-2zm23-4c0-2-1-2-2-2v5c1 4 1 4 2 2v-5zm7 1-1 2h1v-2zm-27-14c-1-1-1 0-1 3l1 3v-6zm20-8c0-15-2-19-2-5l1 20 1-15zm-20 0c0-6-1-5-2 1l1 4 1-5zm0-14c-1-1-1 1-1 3l1 2v-5zm20-5-1-3-1 4 1 3 1-4zm-20-10c1-9 1-12-1-11v22l1-11zm19 0v-2l-2-1v1c-1 2 0 4 1 4l1-2zm-2-10v3-3zm-16-7c-1 0-3 1-3 3l1-1 2-2zm16-9v2-2zm1-8-2-7-1 6 1 7 2-6zm-17-2-1-8v10c1 7 1 6 1-2zm17-11-2-2-1 2 1 1 2-1zm0-12c0-7-1-8-2-7l-1 1v8l1 7c1 0 2-3 2-9zm-8 7 1-3c1-4 0-11-3-10-2 0-3 2-3 7 0 3 0 3 1 2l1-5c0-2 0-3 1-1l1 6v5l1-1zm-9-9c-1-1-1 0-1 1l1 2v-3zm0-11c-1-2-1-2-1 0l1 3v-3zm16 3V0l-1 1c0 2 0 2 1 1zM429 596l1-4 1 3-1 3c-1 1-1 0-1-2zm40 0c0-2 0-3 1-2v4l-1-2zm-250 0-2-3 1-1 2-9 1-10v25l-2-2zm-45-2v-1 3-2zm18-2 1-2c2 1 2 4 1 5l-2-3zm356-3v-4 7-3zm-173 4 1-2v2h-1zm-243-2v-1c1 0 2 0 2-2 1-2 1-2 2 0l-1 3-1 1c1 2 0 1-2-1zM5 582c0-4 0-7 1-4v9l-1-5zm422 5v-2 4-2zm3 3v-5l1 3-1 2zm-208-3v-2 2c0 1 0 1 0 0zm329-3-1-9c0-3 0-3 1-2l1 9c-1 6-1 6-1 2zm-106 0c-1-3-1-7 1-8v5c0 7 0 8-1 3zm-312-7 2-11c1-3 1-3 0 0l-1 6 1 2c2 0 2-2 2-7l1-8v9l-1 8-1-1-2 6-2 4 1-8zm297-1a164 164 0 0 0 0-16l1 24-1-8zm-4 4c0-2 0-2 1-1v2l-1-1zm-354 0v-2 2c0 1 0 1 0 0zm-40-2v-2 3-1zm394-4v-1 3-2zm-175-1v-4c1-2 1-2 1 2 0 5-1 6-1 2zm137-1c0-1 0-2 1-1v2c-1 1-1 1-1-1zm157 0c0-2 0-3 1-2v3l-1-1zM5 560l1-13v20c-1 5-1 4-1-7zm193 9v-9l1-3c0 2 1 1 1 1v6l-1 5-1 4v-4zm127 1v-2 3-1zm-253 0 1-3c1-2 1-1 1 1l-1 3s-2 0-1-1zm76-3v-3 6-3zm22 0 1-4 1 4c-1 4-2 5-2 0zm53 3-1-6v-6c1 0 2 2 2 6l-1 7v-1zm118-2v-2l2 2c1 1 0 3-1 3l-1-3zm103 1 1-1 1 1-1 2-1-2zm64-3-1-1 1-12c0-7 0-11 1-10v25a125 125 0 0 1-1-2zm-326-5c0-12 1-22 2-20 2 1 2 7 1 11l-2 8c-1 8-1 9-1 1zm251 4v-2 3-1zm-265-1v-1 2-1zm255 1 2-1c1 1 2 0 2-3s0-3 1 1c0 3-1 4-3 4l-2-1zm21-3c0-3 1-3 2 0l-1 2-1-2zM45 538v-25l1 21a258 258 0 0 1-1 4zm27 24v-4c1-1 1 0 1 2 1 4 0 4-1 2zm316-2c0-2 0-3 1-2v3l-1-1zm34-3v-10c2-2 2-1 1 6l-1 9v-5zm-407-5 1-9c2 0 1 17 0 18l-1-9zm326 7c0-1 0-2 1-1v2c-1 1-1 1-1-1zm92-4 1-7-2 4-2 4-1-5-1-4v5l-2 5c-1 0-2 0-1-1l1-6 1-4v-2l2 1c2 3 2 3 4 0l2-4c0-2-1-2-2 0v-2l-1-5a1 1 0 0 0-1 1l-2 1-2 2s0 2-2 3-2 2-1 2l-1 1c-2 0-2-8-2-28l-1-19c-1 1 0-13 2-15v-5c0-3 0-3-1-2-1 2-2-2-2-35v-37l-1-16v-19c1-10 0-20-1-20v-15c0-10 0-14-1-12-1 1-1 0-1-4l2-7c0-1 0-2-1-1s-1 0-1-6l-1-8h1a421 421 0 0 1 0-80l1 3-1-4-1-8 1-3c1 1 1 1 0 0v-22l1-5 1-4-1-6v-1l1-2c-2-2-1-13 0-12s1-1 1-4v-3c1 2 1 2 2 0 1-8 1-10-1-11v-8a216 216 0 0 0 1-12v-4c1 2 1 2 3-2 2-6 2-7-1-7l-1 3v3c-2 1-2-5-1-6l1-5c1-10 1-12 2-9 1 1 1 1 1-3l2-4c2 0 3 2 4 12l2 9c0 1 0 2-1 1l-1 8 1 9v2c-1 1 0 2 1 3s1 1 1-1c0-7 1-6 2 2v14c-1 4 0 6 1 2 1-1 1 3 1 9v7c1-4 1-3 2 6v14c-2 6-2 8 0 7l1 3c1 10 1 10 2 8 1-1 1-1 1 1s-1 3-2 3c-2-1-2 0-1 2l1 6c0 3 0 6 2 9l2 3-1-19c2 0 4 11 4 22l1 3v2l-2 1v1l1 3h1c1-1 1-1 0 0v8l4 13c0 2 1 3 2 2s1 2 1 4v5l1 3 1 1v-6c0-3 0-5 1-4 1 0 2 0 2-2 0-1 0-2-2-1l-2-1v-3c0-2-1-2-1 0l-1 3v-3c0-2-1-2-1-1-1 2-2 1-2-2 0-6 1-6 4-2l3 3v-3l-1-3-2-4 1-4 2 1v4l2-2c1-2 1-2 2-1l1 2 1-5c-2-12-1-33 2-33l1-1-1-1-1-4c1-3 1-4 2-3 1 2 2 0 2-7a209 209 0 0 1 2-9c0-3 0-4-1-3-2 5-2-1-1-11l2-7c1 1 1-1 1-5l1-8 1-7 2-8v-1l-1-3c0-2 0-3 1-1 1 1 1 1 1-1s0-3-1-2c-2 1-2 0 0-4 1-3 2-6 1-9l1-6 1-2v-1l-1-8 1-12c1-2 1-2 2 1v-8c0-9 0-9 1-6l2 3 1-4v-5h1l2 2v-1l-1-3c-2 0-2-2-1-3l2-4c0-3 0-4 1-3l1 7c0 5 1 6 1 4 1-3 1-3 1 0l1 9v4l-2-1 2 3c2 2 2 3 1 5l-1 8v8l2 1v-3c0-2 0-4 1-3v7l-1 3h1l2 4v5l-1 1 1 1c1-1 2 10 2 23l2 12v-11l1 9 2 13v15l1-2v-1c2 3 2 10 1 9l-1 7c1 8 1 8 2 4l1-3v15l-1 1 1 1v2l1 2 1 3v4l-1-1-1-1c-1 1 1 6 3 5l-1 1c-2 2-2 13 1 13l1 5c0 4 0 6-1 4l-1 3c-1 8 0 16 1 14 1-1 1-1 1 1l-1 4v3l1 13c0 6 0 9-1 8v2l1 2c-2-1-3 7-2 10 1 1 1 1 1-1v-1c2 1 2 5 0 8v2l1 3-1 7-1 5c-1 2-2 19-1 20l1 4-1 11c0 8-2 11-3 6v5l-1 7v2l1 2c1 0 1 9-1 13 0 2-1 2-1-2 0-8-1-4-2 6l1 10 1 3h-4c2 2 2 13 1 16s-3 3-2 0c0-6-1-11-2-11l-2-1 2-1h2l-1-2c-1-1-2 0-2 1l-1 1-1-3v-13c0-5 0-6-1-1-1 4-1 4-2-2 0-9-1-11-3-6l-1 5v2l-1-5c-1-4 0-6 1-5l1-2c0-2-2-3-3-1v-3c-1-4 0-4 1-3s1 1 0 0l-1-3h-1l-1-2 1-2 1-6-2-5v4c0 3-1 1-2-6l-3-11v-5c2 1 2-1 1-4-1-1-1-2-2 0v-4c0-3 0-5-1-4l-1-1 1-1 1-5c-1-1 0-2 1-3 1-2 1-2-1-1l-2 1-1-12c0-11 0-11-2-7l-2 7c1 2 1 2 1-1 1-3 1-2 1 4l2 11v5c-1 1-1 1-1-2v-3l-1-5-2-6-1-3-1-3-1 2v1l-1-3 1-2v-2c0-3 0-3 1-2l1 1c0-2-2-3-3-2l-1 3v1l-1 6-1 6c-1 1-1 0-1-2v-4l-1 5c0 5-1 6-1 3-2-5-2-10 0-11v-1c-2 0-3-1-3-2v10l1 13v4l-1 12-1 7-1-3-1-5c-1-1-1 1-1 5v22c0 12-1 14-3 13l-1 1v4l-1 3 1-3 2-3v7c0 1-2 3-2 7l-1 9-1 5-2 6v1l-1 3 1 3c1 0 1 1-1 1v2l2 2c-1 3-1 3-1 1-1-3-1-3-2 0l-1 10-1 7v2l1 8c0 4 0 4-1 2s-1-1-1 4v8l-1 8v5c-1-5-5 17-5 23v12c-1 6 0 7 1 7l1 4-1 8c0 2 0 3-1 2s-1 5-1 12l-1 14c-1 1-1-1-1-5zm-4-22-1-1-1 2h1l1-1zm6-4-1-4-1 4c-1 2 0 3 1 3l1-3zm-8-3v4-4zm7-5-1-1-1 4v2l2-5zm2 3h-1l2 2-1-2zm-9-4v3-3zm-2-7-1 1 1 1v-2zm0-6c-3-4-3-4-3-1 0 2 0 3 1 2s1 0 2 1c3 3 3 2 0-2zm2-55v2-2zm1-31v-3l-1 2c0 4 0 4 1 1zm8-4 1-4c1 0 2-1 1-2-2-2-4 4-3 7 1 4 2 3 1-1zm-5-6v-3l-3 1 1 2v3l-1 2c1 2 2 1 3-5zm-4 0c-1-1-2-1-2 2 0 2 1 3 2 2v-4zm20-5v3-3zm-17-2-2 2c0 2 0 2 1 1l1-3zm-1-4c3-1 3-1 3 2s1 3 2 2l2-1c2 2 2-4 1-6l-1-1-1 3c0 4-1 2-1-3 1-13 1-12 2-9l2 5c0 2 1 3 1 1 1-1 2-1 2 1v1-3c-2-3-2-10 0-9v2c-1 1 0 1 1 2v-6l1-15c0-9 0-16 1-15s1-2 1-6l1-10c1-3 2-27 0-27l-4-10c0-4 2-5 2-2v-6l-1-2-1-2-2-15-1-9v-3l-2-4v-12l-1-10-1-1-1-1 1-1 1-2-1-1-1-2-1-4-2-2h2v-1c-1-1-2-5-2-11l-1-9-1-12c0-14 0-14-2-14s-2 0 0-2c1-1 1-2-1-2l-2-2c-1-2-1 2-1 13l-2 5a1254 1254 0 0 0 1 157 301 301 0 0 0 6 62l1-3zm1-4 2-6v7l-1 1-1-2zm14-87-1-4 2 3v4l-1-3zm6 86h-1l-1 2h1l1-2zm46-11v2h1l-1-2zm4-6-1 2h1v-2zm2-29v-1l1-9 2-18 1-17c2-3 2-54 1-68l-1-23-2-16-2-18-1-13-1-4a803 803 0 0 0-9-56l-1 3h-2l-4 1-1 8-1 11-1 5-1 15a429 429 0 0 0-4 45 374 374 0 0 0 19 137v2c-1 1 0 2 1 3l1 5 1 7c2 1 1 1 0 1-2-1-2-1 0 1s2 2 2 0c0-1 1-2 2-1zm-17-2-2-4 2 7v-3zm-1-11c-1-1-1 0-1 1l1 2v-3zm-26-11c-1-3-3-1-3 2 2 5 2 6 3 3v-5zm5-29v-4l1-1h2c1-1 0-1-1-1v-2h2c1 1 2 1 2-3l2-6-2-2-1 1h-3c-2 0-2 0-2 4l-2 13c-1 4 1 4 2 1zm0-10c2-4 3-6 3-3 0 2 0 4-2 4-1 2-1 2-1-1zm-5 5v1c0 3 0 3 1 1l-1-2zm16 0v-2l-1 1c0 2 0 2 1 1zm-1-8c0-2 0-3-1-2l-1 4c0 3 1 3 2-2zm-15-3c-1-1-1 0-1 2l1 1v-3zm3-6v-2 7-5zm4-2c0-3-1-2-2 1l1 2 1-3zm-7-2c-1-1-1 0-1 1 0 2 0 2 1 1v-2zm15 0-1 1c0 2 1 2 1 1v-2zm-5-1 1-3 1 3c0 1 0 2 1 1l-1-4-1-4h-1c-2 1-1 10 0 10v-3zm-15-2-1 2 1 1v-3zm60-37-1 2c0 2 1 3 1 1v-3zm-48-10-1 2c0 2 1 2 1 1v-3zm3-7v2-2zm-1-2v-2l-1 2c0 2 0 2 1 0zm3-14c-1-1-1-1-1 1l1 2v-3zm2-31-1 2h1v-2zm-45-4-1-1-1 1 2 2v-2zm-9-8-1 2 1 2v-4zm86-5c-1-1-1 0-1 1l1 2v-3zm-83-35v3c0 2 0 2 1 1s0-3-1-4zm6-13v3-3zm1-6-1-8c-1-3-1-3-2-1l-1 11c-1 2-1 2 2 2 2 0 2-1 2-4zM284 558v-1 2-1zm267 0c0-2 0-2 1-1l1 2-2-1zm-520-1 1-1 1 1-1 2-1-2zm284-1 1-2v3c0 1-1 1-1-1zm130-1 1-5 1 4c-1 6-2 6-2 1zm-385-5c0-4 0-6 1-4v8c0 2-1 1-1-4zm48 5 1-2v3c-1 2-1 2-1-1zm-37 1 2-2c1-1 1 0 1 1l-1 1h-2zm152 0c-1-4 0-18 1-19h1v4l1 5c-1 2-1 2-1-2 0-2-1-1-1 4l-1 8zm-45-2 1-2 1 1c-1 2-2 3-2 1zm-147-2v-1 2-1zm103 0v-2l1 1c1 3 0 4-1 1zm7 0v-1 2-1zm108 0v-3l1 1v3l-1-1zm35-2v-2 4-2zm24 1 1-2v3c0 1-1 1-1-1zm177 0 1-2v3l-1-1zm-345-4v-1 2-1zm305-4c0-5 1-6 2-4v6c-1 3-1 3-2-2zm27 3 1-2v3l-1-1zm-441-2v-2 3-1zm167 1 1-2 1 2-1 2-1-2zM5 545l2-18v9c0 10 0 10-2 9zm274-1 1-2v3c-1 1-1 0-1-1zm-140-4v-3c2 0 2 6 1 7l-1-4zm63 1v-2 4-2zm70-4 1-9-1 16v-7zm-257 4 1-1 2 1-2 1-1-1zm88-27 1-28a488 488 0 0 1-1 28zm301 23c1-4 1-4 1 0l-1 4v-4zm104-28 1-32a612 612 0 0 0-1 32zm-372 27c0-2 0-2 1-1v2s-1 1-1-1zm180 1 1-2v2h-1zm24 0 1-2v2h-1zm107-2 2-20v11c0 11-1 13-2 9zm-376-6v-2 5-3zm6 2 1-2v2h-1zm-50-1 1-2v2h-1zm312-4 1-8c1-2 1-2 1 5 0 8-1 9-2 3zm145 3-1-8a311 311 0 0 0-1-36l1-3v4c0 3 0 4 1 3 1-2 1-1 2 1l-1 3-1 2 1 1v2l-1 4c1 1 1 0 1-1l1-2c1-1 1 2 1 6l-1 7-2 4v3l1-3c1-2 1-1 1 4l-1 8-1 1zm-466-3v-2 3-1zm-11-2v-2l1 2v1l-1-1zm196-2c1-5 2-6 2-3l-1 5c-1 1-1 1-1-2zm346-1v-3 5-2zm-531-1v-2 3-1zm120 0c0-2 1-2 2-1l-1 2-1-1zm169-14 1-18 1 15-1 18c-1 1-1-6-1-15zM7 518l1-3v4c0 1-1 1-1-1zm68-1 1-3c1-2 1-2 1 0l-1 4c-1 1-1 0-1-1zm148-1v-2 3-1zm104-2c0-2 0-3 1-2v3c0 1-1 1-1-1zm-57-4v-3 6-3zm69 3v-2 3-1zM18 503c0-11 0-16 2-15l1-1-1-1-1-1 1-1a529 529 0 0 1 3-33l1-13c1-11 2-14 3-13l1 2h-1c-1-1-2 8-1 19l-1 7-1 6c1 3 0 5-1 6v1l1 1-1 11c0 6-1 10-2 11v4c0 3 0 3-1 1-1-1-1 0-1 4v11c-1 4-1 3-1-6zm430 9 1-1 1 1-1 1-1-1zm-60-3c0-3 0-4 1-2v4l-1-2zM6 496l1-14c2 1 2 29 0 29l-1-15zm219 13 1-2 1 2-1 1-1-1zm102-4 1-3v6l-1-3zm12-2c1-7 2-8 2-1l-1 7-1-6zm99 0 1-7 1 5-1 8-1-6zm-212-6 1-23v32l-1-9zm-69 6c0-1 0-2 1-1v2c-1 1-1 1-1-1zm14-2 1-4 2-1 1 2c1 2-1 4-2 5-2 2-2 2-2-2zm53 1c0-2 0-3 1-2v4l-1-2zm62 1c0-2 0-3 1-2v3l-1-1zm-96-1-1-3v-11c1-1 0-29-1-30l-2 1-1-7v-9c-1-1 0-11 1-10l1-5c-1-7 1-5 3 2v7a398 398 0 0 1 0 65zm-1-55c-2-2-2-2-1 1l2 2-1-3zm-3-8-1 2c0 2 1 2 1 1v-3zm89 63 1-1v2l-1-1zm100 0c0-1 0-2 1-1v2c-1 1-1 1-1-1zm-300-3 1-2v4l-1-2zm109 3 1-11c0-14 1-14 1 0 0 10 0 12-2 12v-1zm85-2v-2 3-1zm181 2c-1-2 2-33 3-35v8a699 699 0 0 0-3 27zM1 501l-1-8v-8l1 8v8zm43-7c0-7 0-7 1-3v7c-1 2-1 1-1-4zm326 5 1-1 2 1-2 1-1-1zm-43-3c0-3 0-4 1-3v5l-1-2zm-48 0c0-1 0-2 1-1v2c-1 1-1 1-1-1zm-132-2 1-1 1 1-1 2-1-2zm192-4c0-3 0-4 1-2s0 4-1 5v-3zm176-1v-4 7-3zm-461 1c0-2 0-4 1-3v5c0 1-1 1-1-2zm231 0c0-3 0-5 1-3v5c0 1-1 1-1-2zm155 3v-2 2c0 1 0 1 0 0zm-115-7v-11c0-5 0-4 1 4 1 12 1 15-1 7zm-120 2v-3l1 2c0 3 0 3-1 1zm161 0v-2l1 2c1 2 0 2-1 0zm182-5v-4 7-3zm-269 2 1-2v4l-1-2zm-220 1v-5l1 2c0 4 0 5-1 3zm-16-1 2-1c1-1 1 0 1 1l-1 1-2-1zm223-1 1-3c2 0 2 2 0 4-1 1-1 1-1-1zm122 0c0-2 0-3 1-2v3l-1-1zm165-3c0-3 1-4 1-2v5l-1-3zm-500-7c0-7 0-10 1-7v12c0 3-1 1-1-5zm20 10 1-1 1 1-1 1-1-1zm30-1c0-1 0-2 1-1v2c0 1-1 1-1-1zm236-1v-2 3-1zm-192-5v-3 5-2zm267 0v-3l1 5c0 1-1 1-1-2zm67 3 1-8 2-7v8c0 7-1 10-3 7zm-276-7 1-4v8l-1-4zm182 6 1-2 1 1-1 2-1-1zM7 454a652 652 0 0 1 5-86l1 3v-4l-1-4v-24c0-19 0-24 2-26 1-1 1 0 1 11l-1 11c-1-1-1 0-1 2l1 4 1 4-1 14a387 387 0 0 1-4 63 512 512 0 0 1-3 32zm7-138-1 2h1v-2zm326 160-1-6v-4l1 4 1 7c-1 2-1 2-1-1zm-75-1 1-3v4c-1 2-1 2-1-1zm40 2v-2c1-1 3 0 3 2h-3zm22-5 1-4v7l-1-3zm-258 2c0-2 1-2 1-1v3l-1-2zm482 1v-2l1 3-1-1zm-448-3zm54 2 1-2v2h-1zm230-3c0-2 0-4 1-3v5c0 1-1 1-1-2zm123 3v-22c1-1 1 5 1 11l-1 12v-1zm-36-3v-2 4-2zm79 1 1-2v3l-1-1zm-247-3-1-6c-1-1 0-2 1-2s2 10 1 11l-1-3zm241 2 1-3v3l-1 2v-2zm-503-3v-2 4-2zm507-5c0-5 0-7 1-5v10l-1-5zm-325 7 1-3c1-1 1-1 1 1 1 1 0 3-1 3l-1-1zm254-2-1-31 1 6 1 3-1 1v1c2 0 3 5 1 7v1c1-1 2 1 1 6 0 9-1 10-2 6zm-411-3 1-2v4l-1-2zm256-28v-16 32-16zm82 23v-4 8-4zM0 465l1-2 1 1-1 2-1-1zm110 0 1-2v3l-1-1zm206-2v-2 4-2zm87 2c0-1 0-2 1-1v2c0 1-1 1-1-1zm69 0v-4h1l1 3v2c0 1-1 1-2-1zm-201-1 1-4v-3c-2-2-4-15-5-36-2-35-1-82 2-53 1 13 1 15 4 14 1-1 1-1 0 0v7c2 6 3 15 2 33a180 180 0 0 1-2 42v2l-2-2zm2-17c1-1 0-3-1-4-2-1-2-1 0-1l2-2c0-2 0-3-1-1 0 1-1 2-2 1l-1 2 1 4c0 4 2 4 2 1zm1-40-2-7c0-6-1-7-1-1s1 10 2 10l1-2zm-6-18v6-6zm1-8c-1-2-2-2-1 1l1 2v-3zm97 84v-2l1 2v1l-1-1zm-102-2v-2 3-1zm76-4c0-3 0-4 1-2v4l-1-2zm207 2 1-2v2h-1zm-494-2v-1l1 2c-1 1-1 1-1-1zm129-1v-2 4-2zm184 1v-2 3-1zm87 1v-3a322 322 0 0 1 9-55c-3 2 1-8 4-11 2-2 3-3 2-1v4c0 1-1 2-2 1-2-1-4 2-2 4l2-1c0-1 0-1 0 0l-1 4c-1 0-3 6-2 7l-1 1-1 3-2 16-4 22c-1 6-1 10-2 9zm-149-1 1-3c1-2 1-2 1 1s-1 4-2 2zm97-7c0-5 0-7 1-5v9l-1-4zM1 456l1-1-1 3v-2zm469 1v-1l1 1c1 2 1 2-1 0zm-300-2c0-2 0-2 1-1v3l-1-2zm383 0c0-3 0-3-2-3-1 1-1 0-1-9l-1-22c-1-14-2-35 0-36l1 13 2 18c0 3 0 4 1 2l1-1-1 5-1 15c0 14 0 14 1 12 1-1 1 0 1 3v5l-1-2zM42 443c0-9 0-13-1-11s-1 1-1-2l-2-8c-2-4-3-13-2-13l2 2c0 3 0 3 1 1s1-2 1 0v4l-1 2c0 2 0 2 1 0v3c0 2 0 3 1 2 1-2 3 13 2 25 0 7 0 7-1-5zm10 12v-2 2c0 1 0 1 0 0zm50-4 1-5c1-2 1-2 1 2l-1 4-1-1zm205 0 1-2v3c-1 1-1 0-1-1zm33-3c0-3 0-4 1-3v6l-1-3zM0 446l1-3v6l-1-3zm51-3v-33a410 410 0 0 1 0 33zm211 3v-4 7-3zm-81 2v-2 3-1zm23 0-1-4c-1-1 0-2 1-3s1 2 1 4c0 4-1 6-1 3zm100-5v-6l2 1v3c0 3 0 4 1 2 1-1 1-1 1 2 0 2 0 3-1 2l-1 1-1 1-1-6zm207 2c0-4 0-5 1-1l-1 4v-3zm-283-6v-4 9-5zm155 7 1-2v3l-1-1zm-212-1 1-2v3l-1-1zm8-3 1-2v3s-1 1-1-1zm286 1 1-2v2h-1zm-240-6c0-1 0-2 1-1v3l-1-2zm-57-3v-3 5-2zm2 3 1-3c2-1 2 1 0 3-1 2-1 2-1 0zm90-1c0-2 1-2 1-1v3l-1-2zm81-7c0-5 1-7 1-4v10l-1-6zm-239 6 1-3 1 3-1 2-1-2zm298 1 1-3c1-2 1-2 1 1l-1 3-1-1zm46-4v-3 6-3zm-378-4 1-4v8c0 2-1 1-1-4zm44 1v-3 6-3zm71 2v-8c0-4 0-5 1-4 1 2 2 3 1 8-1 8-2 9-2 4zm20 3c-2-1-2-4 0-3l2 2c0 2 0 2-2 1zm77-4 1-3v6l-1-3zm101 3-1-3-1-4-1-6 1-3v1l1 1 1 1v5l1 8c-1 2-1 2-1 0zm-325-2 1-2 1 2-1 3-1-3zm422 1v-5l-1-5c-2-2-3-14-1-15l1 4c0 9 1 10 2 12v7c0 3-1 3-1 2zm33 0 1-1 1 1-1 2-1-2zm-259-3 1-2v4l-1-2zm51-9 1-13c1-1 1 5 1 12l-1 12-1-11zm11 10 1-2v2h-1zM0 427c0-2 0-3 1-2v4l-1-2zm260 1 1-1 1 1-1 1-1-1zm251 0 1-1c1-1 1 0 1 1l-1 1-1-1zm-332-10-1-18 1 4 1 5c2 2 3 8 2 8l-1 5c1 8 0 5-2-4zm1-6-1 1 1 2v-3zm333 7 2-11v13l-2 4v-6zm-286 1 1-23 1 13-1 14-1-4zM1 421l1-1c2 1 2 3 0 3-1 0-2-1-1-2zm26 1v-6l1-4v5c0 6 0 7-1 5zm386-4v-2 4-2zm-312 0v-11l1-4 1 5c0 9-2 17-2 10zm240-1c0-2 0-2 1-1v2s-1 1-1-1zm153-1v-3c0-2 0-1 1 1 0 4 0 5-1 2zm-344-1 1-2 1 2-1 1-1-1zm109-1v-7c1-3 1-3 1 3 0 7 0 9-1 4zm-203 1-1-4c0-4 2-2 2 2 0 3 0 3-1 2zm117-5-2-11c0-5-2-15-4-15v19c-3-8-4-16-4-20v-6c-2-1-2-12-1-16 2-2 2-4 1-7l-1-8c0-2-1-3-2-3v-3l-1-4v-1l2-2-2-3v-4l-1-29c-3-27-3-43-2-126l3-97 1-7c0-4 0-6-1-5v-1h2c1 0 2-3 2-12 1-6 1-7-1-6-1 1-2 0-1-1l1-4c0-2 0-1 1 1s1 2 1-1l-1-3c-2 0-2 0 0-4 2-2 2-6 2-8v-3c1 3 3-9 2-19l1-6v-2l1-2 2 1h2l-1 3-3 23-1 12-2 16-3 24c-3 16-4 21-4 48v29a661 661 0 0 1 0 90c2-1 2-1 1 1-2 1-2 8-1 30 0 30 1 31 2 33v5c-1 2 0 3 1 4v1c-2 0-2 0 0 1v1l-1 4v2l1 6v4c1-2 3-1 3 2l-1 1c-1-1-1 1-1 2l1 3c1-1 1 0 1 1-1 2 0 3 1 4v8a796 796 0 0 0 8 53l1 7-1 6-1-6zm-8-25c0-1-1-1-1 1l1 2v-3zm2-5-1-11c-1-7-1-9-2-7-2 2 1 20 3 20v-2zm211 33v-1 3-2zm-208-1v-2c1 0 3 3 2 4l-2-2zm383-1 1-2v4l-1-2zm-390-1 1-2v4l-1-2zm38 1c0-2 0-2 1-1v2l-1-1zM2 411H1v-10l1 4 1 6H2zm340-1 1-2v3l-1-1zm-118-1c0-2 0-3 1-2v3l-1-1zm-75-2c0-1 0-2 1-1v3l-1-2zm264 0v-2 3-1zm78-1-1-12 1-9c1-1 1 1 1 5l2 10c2 4 2 8 1 7l-3 1c-1 2-1 2-1-2zm-459-4 1-9v-4l-1-2-2 1 1-3c1-1 2-3 1-7l1-7c1-2 1-1 1 3v25l-1 4-1 5v-6zm282 5 1-2v3c-1 1-1 0-1-1zm-214-5v-3 5-2zm453 3v-1l1 1v1l-1-1zm-518-2 1-3 1-3 1-1v8c-1 2-3 1-3-1zm73-1c0-1 0-2 1-1v2c-1 1-1 1-1-1zm41-3c0-3 0-4 1-3v6l-1-3zm155 3v-1 2-1zm38 0 1-2v3l-1-1zm202-8v-11l1 9v11c-1 1-1-3-1-9zm-321 6v-1 3-2zm91-1 1-3v5l-1-2zM1 397l1-2v4l-1-2zm468 2v-4c1-2 1-2 3-1 2 2 2 1 0-2l-2-5c0-2 0-2 2 0l2 7c1 3 0 4-2 3-2 0-2 0-2 2v1l-1-1zm37-2 1-4v4l-1 3v-3zm9-4a274 274 0 0 1 3-29 389 389 0 0 1-3 29zm-486 1 1-4 1 4-1 5-1-5zm79 3c0-2 0-3 1-2v3l-1-1zm150 0c0-1 0-2 1-1v2c-1 1-1 1-1-1zm45 1v-2l2 1c0 2-1 3-2 1zm-192-2 1-1v2c0 1-1 1-1-1zm111-1v-1 2-1zm182 0v-5l1 3c1 4 0 5-1 2zm147-1v-2l1 3c-1 1-1 0-1-1zm-453-5c0-5 1-5 2 1v4s-2-2-2-5zm160 4 1-2v2h-1zm70-2 1-2v4l-1-2zm-217 1 1-2v2h-1zm116 0-1-2 2 1v2c-1 1-1 0-1-1zm99-3v-1l1 2c-1 1-1 1-1-1zm-215-4v-16l1 10v9l-1-3zm87 2 1-2v2h-1zm22-1v-7c2 0 3 7 1 9l-1-2zm84-8v-6 11-5zm70 4c0-3 0-5 1-3v7l-1-4zm30 5-1-16 2 9c0 8 0 10-1 7zm-8-5c1-7 1-7 1 0l-1 5v-5zm-249 2v-2 3-1zm-50-9v-10c0-1 0-2-1-1h-1l2-2 1 5 1 11v6c-1 0-2-4-2-9zm-95 2v-9l-1-3-1-70 1-70c2 0 3 4 1 6l1 2v3l-2 10 1 5 1 26a555 555 0 0 0 2 38c0-4 1-5 2 0l-2 5c-2 2-2 9-1 11l-1 1-2 16 1 13c2-2 2 2 1 13 0 7 0 8-1 3zm324-6v-12 23-11zm-129 7 1-2c1 1 2 4 0 5l-1-3zm27 2 1-1h1l-1 2c-1 1-1 0-1-1zm322 0 1-6c1-4 1-4 1-1l-1 6c0 2-1 2-1 1zm-134-5v-2 3-1zm-241 0 1-2v3l-1-1zm42 1v-5c1-2 1-3 1-1s1 2 2 1c0-2 1-1 1 1 1 3 0 5-1 2-1-1-1-1-2 1 0 1 0 2-1 1zm117-10v-4 10-6zm42 3 1-8c1-1 1 2 1 6 0 10-1 11-2 2zm-317 3v-1l1 3-1-2zm52-1v-2 4-2zm150-4 1-4 1 4-1 4-1-4zm145-8v-11l1 11v10l-1-10zm-206 7v-2 3-1zm20 0v-2 3-1zm243 1 1-2v2h-1zm-350-2 3-3-1 2-2 1zm286-1 1-2 1 1-1 2-1-1zm156-4-1-8c-1-2 0-2 1 0l1 8-1 6v-6zm-445 3v-3l1 1c1 4 0 5-1 2zm119 0c-2-3-1-4 0-2l1 3-1-1zm79-8-1-17-1-7 2 4c1 4 2 8 1 16 0 14-2 17-1 4zm-112 5 1-2v3s-1 1-1-1zm353-9-1-14c0-2 0-2 1-1 1 2 3 26 1 26l-1-11zm-448 8-1-4c1-1 1 0 1 2v2zm14 1c-2-3-2-15-1-18 1-2 1-1 1 6l1 11c0 2 0 3-1 1zm84-1v-2 3-1zm24 0 1-2 1-1 1-1-1 4-2 3v-3zm-154-2v-2 3-1zm104 1v-1l1 2c-1 1-1 1-1-1zm292 1 1-3h1l-1 3h-1zm-255-3v-1l1 1v1l-1-1zm119-7v-12l1 5c0 4 0 6 1 4 0-5 2-3 2 3-1 9-1 8-2 8l-2-8zm218 6v-1 3-2zm-437 0v-2 2c0 1 0 1 0 0zm103-1v-2l3 2 3 1c2 1 2 1-1 1l-5-2zm15-1c0-3-1-3-1-2-1 2-3 2-3 0l3-3 2-6c1-3 1-2 1 3 0 9-2 16-2 8zm-10 0-1-3c-2-1-3-4-1-4l1-2v-2l2-1c2-3 2-2 1 4l-2 8c-1 1-1 1 0 0zm249-1v-2l1 2-1 2v-2zM48 317l1-34 1 35-1 35-1-36zm45 35 1-2 1-2c1-2 1-2 1 1 0 4-1 5-3 3zm426-1 1-2v3l-1-1zm-351-1v-2 3-1zm35-3c-1-5 0-6 1-1l1 4-2-3zm4-1 1-5c0-3 0-3 0 0l1 5v2s-2 0-2-2zm138 0v-2 4-2zm66-3v-4 7-3zm-151 2c0-1 0-2 1-1v2l-1-1zm54 0c0-1 0-2 1-1v2c-1 1-1 0-1-1zm78 1-1-5-1-4v-3c1-1 1-1 2 2 2 11 2 12 0 10zm8-15v-19l-2-2c0-2 1-2 2-2 1 1 2 3 2 10a308 308 0 0 0 0 29l-2-16zm120 6 1-7v17l-1-10zm-328 7v-1l1 1v2l-1-2zm27-2v-10h1l3 8v1c-2 0-2 0 0 1v1l-1 1v2l-3-4zm176 0c0-2 0-2 1-1v3l-1-2zm76 1v-1l1 1v1l-1-1zm-380-9c0-10 2-11 2-2l1 6 1 2c0 2-1 3-2 3s-2-2-2-9zm65 8-1-8v-7l2 16-1-1zM4 340v-2l1 2c1 2 0 3-1 0zm186 0v-2l1 2c1 2 0 3-1 0zm15-1v-2l1 2v2l-1-2zm123-4c0-3 1-4 1-2v6l-1-4zm-142 3-2-3 1-1s2 1 2 3c0 3 0 4-1 1zm37-1v-2 2c0 1 0 1 0 0zm56-1 1-4c1-1 1 0 1 2l-1 4-1-2zm270 0v-1 3-2zm-447-2-1-5-1-1-2-2 2-2c2 0 2 2 2 6l1 4v3l-1-3zm292 1 1-2v3s-1 1-1-1zm-191-1-1-21 1 6 1 5 1 1v5l2 1h2l-1 1c0-1-2 0-2 2l-2 3-1-3zm54-1 2-4v5l-1 2-1-3zm-150-4-1-18 1-12 1 3v9c2 13 2 23 0 23l-1-5zm75 3v-3c0-2 0-1 1 0 1 3 1 4-1 3zm6-1-1-2-1-4v-2l3 8h-1zm25-3c1-3 2-4 3-2l1 2h-1c-1-1-1-1-2 1l-2 2 1-3zm173 1v-2 3-1zm3-1c0-3 1-3 1-2v4l-1-2zm-170 1 2-5 1 3c-1 3-3 4-3 2zm113-3v-3 5-2zm78 2c0-1 0-2 1-1v2c0 1-1 1-1-1zm-142-1 3-3c2-1 2-1 2 1v2h-5zm46-3 1-2v4l-1-2zm-108 1 1-3c2-1 2 1 0 3-1 2-1 2-1 0zm54-1 2-3v-2l2 2c0 1 0 1 0 0 1-2 3-2 3 0l-3 3-3 1-1 2v-3zm85 1v-2 3-1zm-190-2v-2 3-1zm26-1 1-8c0-4 0-4 2 1v6l-3 3v-2zm-14 1v-3c1-1 0-2-1-2v-3l-1-4-2-11v-35l2 22 1 19 1 4 1 9c1 5 0 6-1 4zm162-10 1-11 1-2v-9c1-15 2-33 1-34l-2-2 3 1 2 8-3 32-1 20-1 9-1-12zm17 3c0-4 0-5 1-3v6l-1-3zm-69 3-2-2-1-2c0-1 1-2 2-1l2 7-1-2zm56-5c0-10 1-11 1-2l-1 8v-6zm-134 3c0-2 1-2 1-1v3l-1-2zm345-5c0-5 0-7 1-5v9l-1-4zm-277 5 1-1h2l-2 2c-1 1-1 0-1-1zm-45-5v-2 5-3zm27 1 1-11 2-9-2 19c-1 4-2 4-1 1zm137-1v-2h-2l2-3v-1l-1-2c1-2 1-2 3 0 2 3 3 4 1 3-1-1-1 1-1 3l-1 5-1-3zm-72-9 1-11v22c-1 1-1-4-1-11zm-44 8v-2 2c0 1 0 1 0 0zm139-9 1-6v11c0 3-1 1-1-5zm113 6 1-4v8l-1-4zm-426 0 1-3v5l-1-2zm7 2a148 148 0 0 1-5-45l2 10 1 14 1 9 1-1v-3c1-1 1-1 1 2l-1 3v3l1 6c0 3-1 3-1 2zm97-3c-1-3-1-3-2-1s-1 2-1 0l1-3v-17l3 19v1l1 2c0 4-1 3-2-1zm105 1v-2 4-2zm22 1c0-2 0-3 1-2v3l-1-1zm-315-2 1-3v4c-1 3-1 2-1-1zm260 0v-4l3-3v2l-1 3-1 2-1 3v-3zM6 308l-1-8v-5l1 5v8zm84-2 1-1 2 1-2 2-1-2zm309-3-1-4v-6c1-5 1-5 2-2v15l-1-3zm-369-2 1-3v7l-1-4zm125 2 1-1 1 1-1 2-1-2zm386 0 1-1v2l-1-1zm-451 0 1-1h2l-2 1h-1zm-77-3v-1l1 3-1-2zm292 0v-2 3-1zm83-1-1-4-1-1c0-1 2-1 3 1v5c-1 3-1 3-1-1zm-192 1v-2l1 3c-1 1-1 0-1-1zm6 0v-2 3-1zm20 0v-5c0-3 0-3 1 1 0 6 0 7-1 4zm-72-1 1-2v2h-1zm184-2c0-2 0-3 1-2v4l-1-2zm-179 0v-1 2-1zm387 0 1-8c0-5 0-5 1-2v10c-1 3-1 3-2 0zm-266-2c-1-4 0-5 2-3v4l-1 3-1-4zm-264-2c0-2 0-3 1-2v4c0 1-1 1-1-2zm69 0c0-3 0-4 1-3v5l-1-2zm-51-2 1-5 1 5-1 5-1-5zm317-3c0-9 1-10 1-2l-1 7v-5zm177-21c0-37 1-39 1-4l-1 29v-25zM95 289c0-1 0-2 1-1v2c-1 1-1 1-1-1zm166 0 2-2 2 2c-1 2-4 2-4 0zm279-3c0-2 1-2 1-1v3l-1-2zm-155-7v-24 1c1 2 1 2 2 0l-1 6c0 2 0 3 1 2l1 3-1 4-2 8v9-9zm-192 5-2-6-1-5 1 2c0 2 1 2 3 0h2l-2 2v9l-1-2zm204-5 1-7 2 7-2 6-1-6zm-385 3c-1-3 0-48 1-48a462 462 0 0 1-1 48zm83-1c0-1 0-2 1-1v3l-1-2zm220 1 1-2v3l-1-1zm-119-1v-2l1 3c-1 1-1 0-1-1zm71-1 2-5v2l-2 4v-1zm-8 0 1-2v2h-1zM5 276c0-4 0-4 1-2v6l-1-4zm382 1v-2l1 4-1-2zm21-12c0-9 0-13 1-8v16c0 5-1 1-1-8zm134 10v-3 6-3zm-364-1 1-3v5l-1-2zm169 2c0-1 0-2 1-1v2c-1 1-1 0-1-1zm-258-2 1-1v3l-1-2zm63-8-1-11 2 10v10l-1-9zm-102 1v-4 9-5zm146 4v-1l1 2c-1 1-1 1-1-1zm120-2v-2 5-3zm-127-1v-2 4-2zm115 1v-1 3-2zm92-8-1-16 1-7c1 0 2 4 2 17l-1 16-1-10zm-236 5v-2 4-2zm34 0v-2 4-2zm-164 2 3-1-1 1h-2zm318-1 1-2v2h-1zm22-2 1-1v2c0 1-1 1-1-1zM5 265zm143-3v-2 4-2zm156 2 1-2v1c-1 3-1 4-1 1zm27 0v-1 2-1zm-299-1-1-3c-2 0-3-5-2-7l1 1h1v-9l-1 3-1 3v-3c0-2-1-3-4-3l-1-3 2-13 1-5-1 6c0 5 0 6 2 9 2 2 2 2 3 0s1-1 3 2c1 3 1 4 2 2 1-1 1-1 1 1v5h-2c-1-1-1 0-1 3 0 4 0 5 2 5s1 0 1 3c-1 1-1 2-2 1 0-2-2-1-3 2v2-2zm158-1v-7l1-3 1 3v7c1 4-1 4-2 0zm354-2c0-3 0-4 1-3v6l-1-3zm-356 0v-2 4-2zm53 2 1-2v3l-1-1zm107-4 1-4v7l-1-3zm-260-3 1-6v11l-1-5zm6 3v-1l1 2c-1 1-1 1-1-1zm225-2c0-1 0-2 1-1v3l-1-2zm-255-6v-3 7-4zm33 2v-27l1 15v15l-1-3zm90 0v-2 4-2zm-25-17 1-21v35c-1 4-1-1-1-14zm26 13v-9c-2-5-2-20-1-20s2 7 2 24l2 6v3l-3-4zm117 2v-2 3-1zm-154-1v-11l1 12-1-1zm219 0 1-2v2h-1zm-194-9c0-5 0-7 1-5v9c0 2-1 1-1-4zm156 6v-1 2-1zm-283-1 1-4 1 3c0 3-2 4-2 1zm359-2c0-3 0-4 1-3v5l-1-2zm-21-4c0-4 0-6 1-4v7c0 2-1 1-1-3zm155 4-1-5c-1-2-1-2 0 0 1 1 2 3 1 5v3-3zm-172 0 1-2v2h-1zm-281-1-1-2 1 1 1 2-1-1zm-27-2c0-1 0-2 1-1v2c0 1-1 1-1-1zm215 0v-1 2-1zm-242-2v-1l1 1v2l-1-2zm313-1c0-2 0-3 1-2v3c0 1-1 1-1-1zm105 2v-2h-1c-3 1-2-1 0-3 2-1 2-1 3 2l-1 4-1-1zm-415-9v-4 8-4zm50-2 1-9v18l-1-9zm307-21c1-38 2-56 4-55 1 1 1 15-1 15v1l1 1-2 46-1 22-1-30zM35 235v-5c0-2 1-2 1 0v5c0 2-1 2-1 0zm118-7v-5 9-4zm167 4c0-2 0-3 1-2v3c0 1-1 1-1-1zm-14-1c0-1 0-2 1-1v3l-1-2zm79-4v-4 7-3zm-373 1c0-3 0-4 1-3v5c0 1-1 1-1-2zm396-2c0-4 0-6 1-4v7c0 2-1 1-1-3zm-379 2c0-9 0-17 1-16v11c0 6 0 7-1 5zm293 2 1-2v2h-1zm202-1 1-2v3s-1 1-1-1zm-348-4c0-3 0-5 1-3v6l-1-3zm285 2v-1 2-1zm-438-9c0-7 1-9 2-8 1 2 0 16-1 18l-1-10zm282 7 2-10c0-10 0-10 1-9l1 10c0 8-1 11-2 11-2 1-3 1-2-2zm14 2 1-2 1 2-1 1-1-1zm15 0 1-2c1-1 1 0 1 1-1 2-2 2-2 1zm48-2c0-1 0-2 1-1v3l-1-2zm-347 1-1-3c2-1 3 1 2 3h-1zm477-2 1-2 1 2-1 1-1-1zm33-2 1-2v3c0 3-1 3-1-1zM0 223l1-2v2H0zm349 0 1-2v2h-1zm-14-10v-16c1-5 1-1 1 10 0 18 0 22-1 6zm188-2c0-7 0-10 1-6v12c0 3-1 1-1-6zm-136 7-1-3c-1 0-2-4-1-9v-9l1 9v8l1-7c0-6 0-6 1 4l-1 11v-4zm-376-7c0-7 0-9 1-8v17c-1 1-1-3-1-9zm-11 5 1-2v4l-1-2zm38 2-1-7c2-11 4-11 3-1 0 10 0 10-2 8zm112-2v-4c1 0 2 6 1 7l-1-3zm232 1c0-2 0-2 1-1v3l-1-2zM4 212v-4 7-3zm171 4 1-3 1 3v2l-2-2zm233-7c0-6 0-8 1-5a69 69 0 0 1 0 10c-1 3-1 0-1-5zm132 7 1-2v3s-1 1-1-1zm-452 0 1-8v9l-1-1zm458-5 1-7c2-2 0 10-1 12v-5zm-225 0c1-5 1-5 1-1l-1 5v-4zm28 2 1-1v3l-1-2zm-163 0-1-15 1-12a373 373 0 0 1 0 27zm-35-7c1-5 1-5 1-1v5l-1-4zm137 3 1-2v3l-1-1zm80-24 1-38 1-31A716 716 0 0 1 380-7c0-2 1-2 3-2s4 4 2 4l-1 3-1 14-1 21c0 7-1 10-2 10l-1 8c1 6 1 8-1 7v1c2 2 1 8 0 8-1-1-2 0-2 1l1 1v3l-1 15c0 9 0 10-1 7-1-4-1-4-1 3v9c2 1 1 3-1 3a1178 1178 0 0 1-6 99l1-23zm-206 20 1-7c1-2 1-2 1 3 1 7 0 9-1 9l-1-5zm27-4c0-5 0-7 1-4v9l-1-5zm352 1c1-14 1-16 1-4v12l-1-8zM0 200l1-4v7c0 2-1 1-1-3zm175 3v-2 4-2zm106 2-1-2 2 2c0 2 0 2-1 0zm-256-2v-1 2-1zm40-1v-2 4-2zm242-3 1-3v5c-1 3-1 3-1-2zm-67 1 1-1v3l-1-2zm-229-1 1-2 1 1-1 2-1-1zm28-1v-1 3-2zm283 1 1-2v2h-1zm16-6v-4 8-4zm119 4v-1l2 1c1 1 0 2-1 2l-1-2zm90-7 1-7-1 11v-4zm-309 4 1-2v3c-1 1-1 0-1-1zM3 192v-1 3-2zm19 1 1-3c2-2 2-1 0 3h-1zm132-2v-2 4-2zm21 0v-2 4-2zm233-3 1-7v5c0 9-1 10-1 2zm45 3h2c1 1 1 1-1 1-1 0-2 0-1-1zm-412-2v-2l1 2v2l-1-2zm-31-4-1-21c1 0 2 5 2 11 1 12 0 19-1 10zm511 1-1-9c0-4 0-4-1-2l-1 3v-3l-2-11c0-7 0-8 1-4l3 9 2 21-1-4zM4 185v-2 4-2zm85 1 1-2v2h-1zm60-1 1-2v3s-1 1-1-1zm13-5a299 299 0 0 0 2-19c1 2 0 24-2 26v-7zm162 5v-2 3-1zm144 1v-2 2c0 1 0 1 0 0zM23 162v-22h2v3a386 386 0 0 0-2 19zm130 23-1-2 2 1v-11l2 7c-1 5-1 7-3 5zm390-9c0-8 0-10 1-9 1 2 0 18-1 19v-10zm-503 6 1-13 1-8v21c-1 3-2 4-2 0zm295 1a375 375 0 0 1 1-37c0 11 1 16 2 15 0-1 1-1 1 3l-1 4s-2 4-2 9l-1 6zm-246-5c0-4 0-5 1-3v5c-1 3-1 3-1-2zm249 3v-2 3-1zm-272-3v-2 4-2zm119-6c0-10 1-12 2-5l-1 9c0 5-1 5-1-4zm-46 7v-2c1-1 2 0 1 2h-1zm370-1v-1 2-1zm38-2v-6l1 5c0 6 0 7-1 1zm-79 1v-1 2-1zm-130-2v-2 3-1zm-148-3-1-7v-3l1 3 1 7-1 5v-5zm257 3v-2 3-1zm94-9v-5 11-6zm58 9 1-2v3c-1 1-1 0-1-1zm-66-2-1-22-2-27a786 786 0 0 1-4-44l-2-17c0-5 0-5 1-2 1 8 2 6 2-2-1-10-2-11-3-9s-1 0-1-4l1-6 1-2c0-2 0-2-1-1s-1-3-1-11l1-13 1-3V7c-1 1-2-4-1-11 0-5 0-6 3-5 2 1 2 5 0 10v1l2-6 3-5 1 7a345 345 0 0 0 0 70 205 205 0 0 1 0 47l1 14 1 27-1 16v1h2c0 1-2 2-3 0zm-2-81-1-6v10c0 8 0 9 1 6V92zm-4-22-1 2 1 3v-5zm3-9v3-3zm-5-18c-1-1-1 0-1 2l1 2v-4zm2-51c-1-1-2 1-1 3 0 2 1 2 1 0v-3zM324 171v-1 2-1zm-234-1v-7c0-4 1-4 1-2 2 3 2 7 0 9s-2 2-1 0zm160 0c-1-3 0-4 1-1l1 2-2-1zm138-1c0-1 0-2 1-1v3l-1-2zm-322 0v-2 3-1zm533-4c0-3 0-4 1-3v5c0 1-1 1-1-2zm-423-2c0-2 0-3 1-2v3c0 1-1 1-1-1zm15-1c0-1 0-2 1-1v3l-1-2zm133-1v-2 4-2zm27-5v-3 7-4zm36-2 2-17c2-6 2-6 3-3v12l-1-4v2l-1 5h-1l-1 7c-1 11-2 9-1-2zm158 9c-2-1-1-5 0-5l1 3c0 3 0 3-1 2zM9 160l-1-33 3 26c0 9-1 12-2 7zm364 1v-2 2c0 1 0 1 0 0zm-188-2c0-5 2-11 3-11s2 1 2 3 0 2 1 1v1c-1 5-1 5-2 1l-1-4-1 4-1 7-1-2zm124-5v-3 6-3zm29-7v-6 12-6zm71 9c0-1 0-2 1-1v3l-1-2zm-368 0 1-1 1 1-1 2-1-2zm210-2 1-4c1-1 1 1 1 3 0 4-1 4-2 1zm293-9 1-16c0-3 0-5 1-4s0 30-2 31v-11zm-393 8 1-2v3l-1-1zm239 0 1-2v3l-1-1zm124-2v-6l1 1c2 4 2 9 1 9l-2-4zm-470-1-2-4-1-3c0-2 0-3 1-2l2 2v7zm48-2c0-5 0-7 1-6v7l-1 6v-7zm70 0c0-5 1-4 2 1l-1 4-1-5zm124 4v-2l-1-1v-1l-4-30a452 452 0 0 0-10-81c-2-23-4-45-3-46s2 2 3 15a252 252 0 0 0 6 43c0 7 1 12 2 11l1 2c-1 2 0 22 2 40l1 14c1 5 1 8 3 9s4-1 3-2v-1h2a228 228 0 0 0 4-73l1-3-1-28V0l3 78a415 415 0 0 1-9 71c0-3-1-2-1 1l-2 3v-1zm123-1c0-1 0-2 1-1v2c-1 1-1 1-1-1zm-10 0a430 430 0 0 0 3-42l4-56 1-5v10l-2 34a364 364 0 0 1-5 53c1 7 1 7-1 6zM0 142c0-5 1-7 1-4v9l-1-5zm548 5v-2 4-2zm-490-1v-2 4-2zm93 1 1-3 1 2c-1 4-2 4-2 1zm301 1 1-2c1-2 2-2 1 1 0 2-2 4-2 1zm5 0v-5l3-2c2-2 2-5 2-12l1-13c0-3 1-2 1 5 0 13-2 22-5 23-2 1-2 2 0 1 1 0 2 0 1 1l-1 3-2-1zm-269-4 1-2 1-7v-4l2-7 1-3 1-7c1-12 2-15 3-15v-2l1-1 1 2-1 2c-1-1-1 1-1 4l-2 15-2 14-1 7-1 3-2 2-1-1zm222-8zm132-1v-6 12-6zm-382 1v-5 8-3zm-117-7zm281 11v-2 3-1zm126 1 1-2c2-2 2-2 0-1l-2-1c1-3 5-5 5-3a1 1 0 0 1-2 1v1c1 2 6-1 6-4l1-3 1 7-2 1c-2 0-5 0-4 1 0 1 0 2-2 3h-2zm-76-4c0-1 0-2 1-1v3l-1-2zm-350-3 1-5c0-3 1-2 1 3 0 6-1 7-2 2zm153-4 1-4v8l-1-4zm336 5c-2-7-2-12-1-13s1 1 2 6c1 8 0 12-1 7zm-120-1v-2 3-1zm-339-2c0-2 0-3 1-2v3c0 1-1 1-1-1zm-13-1c0-2 0-3 1-2v3c0 1-1 1-1-1zm-41-1c0-1 0-2 1-1v3l-1-2zm322 0c0-3 1-3 2 0l-1 2-1-2zm-14-2 1-1 2 1-2 2-1-2zm290-1v-3l1 3v3l-1-3zm-505-4 1-6v9c-1 3-1 3-1-3zm298 4 1-3 1 2c-1 4-2 4-2 1zm-204-2v-2 3-1zm147-8a135 135 0 0 0 0-14c1 4 2 23 1 24l-1-10zm-175 8 1-2v3l-1-1zm-105-6c0-3 0-5 1-3v7l-1-4zm268 2 1-3 2 4c0 2-1 3-2 3l-1-4zm53 1 1-2v4l-1-2zm-67-2 1-4 1 4-1 4-1-4zm-284 1v-1 2-1zm424-2v-2 5-3zM6 110a386 386 0 0 1 1-51 1196 1196 0 0 0 1 62l-2-11zm1-25c-1-1-1 0-1 1l1 2v-3zm0-7c-1-1-1 0-1 2l1 1v-3zm191 42 2-3h2l-2 1-1 2c-1 2-1 2-1 0zm-69-1v-3l1 1 1 1 1 1c0 2-2 2-3 0zm416-7c0-8 0-8 1-3s1 6 1 2l1-3c1 1-1 13-2 13l-1-9zm-34 6 1-2v3l-1-1zm-186-3v-2 3-1zm50 1 1-2c1-2 1-2 1 0l-1 3-1-1zm57-3v-3 5-2zm-338-2 1-5v5c-1 6-1 6-1 0zm193 4v-2c2-1 3 0 2 2h-2zm86-2v-2 3-1zM24 102V89l1 11c-1 16-1 17-1 2zm44 3 1-5v10c0 3-1 1-1-5zm66 7c0-4 0-4 1-2v4c-1 1-1 0-1-2zm56 1 1-2 1 1-1 2-1-1zm320 0v-2l1 3c-1 1-1 0-1-1zm32-1v-1 3-2zm-148-1c0-1 0-2 1-1v3l-1-2zm51-1 1-2 1 2-1 2-1-2zm20-2c-1-4-1-12 1-13h2v2l-1 2-1 3a1 1 0 0 0-1 1h1c2 0 2 3 0 7 0 3 0 3-1-2zm-411 0c0-2 0-3 1-2v4l-1-2zm105 1 1-3 1 3-1 2-1-2zm192-2v-3 5-2zm-222 0 1-5c1-3 2-4 3-3 1 3 1 4-1 3v3c1 2-1 3-2 3l-1-1zm8-5 1-3v5c0 1-1 1-1-2zm309 1v-5c1-1 2 1 1 5v4l-1-4zm152-1v-2 4-2zm-458-2c1-6 4-14 4-10l-1 3-1 6-1 5-1-4zm-46 2 1-1 1 2-1 1-1-2zm215-34V35v70-37zm85 34c0-2 0-3 1-2v3l-1-1zm-340-1c0-1 0-2 1-1v2c-1 1-1 1-1-1zm491 0c0-1 0-2 1-1v2c-1 1-1 1-1-1zm-424-9c0-5 0-7 1-5v8c0 2-1 1-1-3zm41 1 1-7v6c-1 8-1 9-1 1zm251 2v-3 5-2zm-66 1c0-2 0-3 1-2v3l-1-1zm4 0c-1-2 0-4 1-5 1-2 1-2 1 0l-1 5-1 3v-3zm158 1v-3c0-2 0-2 1-1l1 3c0 1-1 2-2 1zm-380-2-2-9-1-6-1 5-1-5 1-8c1 2 1-2 1-11-1-17-1-23 1-39l2-19 1-6 1-1c-2-1-3-5-2-5l1 2c0 2 0 2 1 0l3-2h3v55l1-8 1-10v11l-1 12c-1 1-2 5-2 16 0 9-1 16-2 16v1l-2 6c-1 2-2 3-1 4l1 1c-1 3-3 2-3 0zm5-52V15l-1-7-1 6-3 12a298 298 0 0 0 1 47l2-3c1-4 2-12 2-27zm-5 7 1-4v9l-1-5zm2-17 1-2v3l-1-1zm1-5v-3c1-1 2-1 2 1 0 3-1 4-2 2zm313 68V85c1-1 1 0 1 5 0 7 0 8-1 6zm100-5c0-9 2-13 2-3l-1 8c-1 1-1-1-1-5zM45 91v-3 6-3zm153-1 1-4v3l-1 5v-4zm4-1c-1-9-1-12 2-11 4 2 6 2 6 0 1-2 1-3 2-2s-1 2-1 4c-2 4-5 6-5 3l-1-2c-2 0-2 3-3 7v7-6zm235 4 1-2v3l-1-1zM95 89l1-4v4c0 5-1 5-1 0zm372 2c-1-2 2-21 3-19l1 5-1 7-1 3c-1-1-1 0-1 3 1 3 0 5-1 1zm-332-2c0-2 0-3 1-2v4l-1-2zm60 1v-1 2-1zm260 1c-1-1-1-4 1-4l1 3c0 2 0 3-2 1zm-57-3v-1l1 1c1 2 0 2-1 0zm111 0v-2 3-1zm-341-4V67l1-2-1 22v-3zM23 83l2-5c0-2 1-1 1 2l-1 5c-1 1-2 1-2-2zm116 2 1-2v2h-1zm57-2v-2 3-1zm312-1V53c1-3 1 1 2 14l-1 18-1-3zm-94-8c0-6 0-9 1-6v11c0 3-1 1-1-5zM68 81l1-2v3c-1 1-1 0-1-1zm253-1v-8l1-4v12l-1 3v-3zm30 1zm104-2c-2-16-3-24-3-45V-9h15V4c-1 16-1 24-4 35a182 182 0 0 0-3 21l-1 12c-1 10-3 13-4 7zm-276 0c0-2 1-2 1-1v3l-1-2zm152 1v-2 2c0 1 0 1 0 0zM42 79l1-2v2h-1zm12-24c0-14 1-20 1-13v26c0 7-1 1-1-13zm391 24 1-2v2h-1zm7 0 1-2v2h-1zm43 0v-2 2c0 1 0 1 0 0zm103-5c0-4 0-7 1-6l-1 12v-6zm-478-9zm44 10 1-3v7l-1-4zm383 2c1-5 0-10-1-9l-2-1v-1l3-1c3-2 3-2 3 5l-2 8c-1 1-1 1-1-1zm-149-3 1-5 1 5-1 4-1-4zM58 69c0-6 0-8 1-5v12l-1-7zm38 5 1-2v3c0 1-1 1-1-1zm6 1 1-2v3c-1 1-1 0-1-1zm323-4 1-10c0-2 0-2-1 0s-1 2-1-1c0-2 1-2 3-2s2 0 2 8 0 9-2 6c-2-2-2-2-1 1l-1 3v-5zM23 75l2-1h1l-1 1h-2zm117-2v-1 3-2zm57 2 2-4-1 3-1 1zm93-3v-2 4-2zm-22 0v-1l2 1-1 2-1-2zm64 0 1-1 1 1-1 1-1-1zm119-4c0-3 1-4 1-2v5l-1-3zm30 3v-1 2-1zM22 71l1-2 2 2-2 1-1-1zm21-4c1-6 2-7 2-3l-2 5v-2zm138 1v-2 3-1zm103 1v-2 3-1zm258-13v-8 15-7zM68 67c0-2 0-2 1-1v3l-1-2zm97 1v-1l1 1c0 2 0 2-1 0zm307-13a270 270 0 0 1 3-30 567 567 0 0 0-4 44l1-14zM22 62V46l1 6v3c1-2 1-1 1 5 0 10-1 11-2 2zm75 5 2-2c1 1 1 3-1 3-1 0-2 0-1-1zm302-2v-2 3-1zm-115-1 2-1-1 2c-1 1-1 1-1-1zm314-2-1-8c-1-2-1-2 1 0l1 7-1 6v-5zM89 63l1-2v3c-1 1-1 0-1-1zm8-4 3-14v4a69 69 0 0 0-1 9l-1 5-1-4zm44-1v-2 5-3zm27 4 1-6 1-4v6c0 5-1 7-2 4zm379-1v-6l1 4v3l-1-1zM444 44l1-18v17l-1 18V44zM44 56v-2 4-2zm247-6v-6 11-5zm-90 6 1-5c0-2 1-2 1 1l-1 5c-1 2-1 2-1-1zM46 55v-1 3-2zm91 1 1-2v3l-1-1zm23-3v-2 5-3zm337 3 1-2v3c-1 1-1 0-1-1zm-83-1v-2 2c0 1 0 1 0 0zm13 0-1-1c1 0 2-1 1-3l1-4c2-1 2 0 1 4-1 6 0 6-2 4zm-94-4c0-1 0-2 1-1v2c-1 1-1 1-1-1zm213 1 1-1 1 1-1 1-1-1zm-265-2 1-2v3l-1-1zm49 0 1-15 1 8-1 9-1-2zM69 45l1-4v7l-1-3zm100 4v-2l1 2h-1zm180-1c0-2 1-2 1-1v3l-1-2zm183-1c0-2 1-2 1-1l-1 2v-1zm12-4v-7l1 6c0 9-1 10-1 1zm53-12c0-18 0-16 1 6l-1 12V31zM427 45l1-5c1-2 1-1 1 1l-1 5c-1 1-1 1-1-1zm122 1-1-4c-1-3-1-4 1-2v6zM45 19V-9a463 463 0 0 1 0 28zm441 25 1-2v3l-1-1zm22-4c0-4 0-4-1-1l-1-11V-8c2-4 3 2 2 10v16l1 17v10l-1-5zM20 40l1-4 1 3c0 5-1 5-2 1zm79 1v-2 3-1zm250 0-1-8-1-7h1l2 17-1-2zm66-3c0-3 0-4 1-3v5c0 1-1 1-1-2zM5 36V0l1 21a199 199 0 0 1-1 15zm199 0c0-1 0-2 1-1v3l-1-2zm114-3v-5l1 4c1 5 0 5-1 1zm-166-1 1-3 1 3-1 3-1-3zm54 1 1-1v2c0 1-1 1-1-1zm220-2c-1-8 0-9 1-3 2 7 2 5 2-4l1-3c1 1 1 12-1 13-2 2-2 1-3-3zm-97 1 1-2 2 1-2 2-1-1zm214-1v-1l1 1c1 2 0 2-1 0zm-443-2 1-3v4c-1 2-1 2-1-1zm315-1 1-2v3l-1-1zm132 1-1-4c1-2 1-1 1 1l1 2 2 1c0 2-3 1-3 0zm-406-2v-2 3-1zm86 0 1-1v2c0 1-1 1-1-1zM54 24c0-2 0-3 1-2v4c0 1-1 1-1-2zm98 2 1-1v2c0 1-1 1-1-1zm232-1 1-2v3l-1-1zm148 0 1-2v3c-1 1-1 0-1-1zm11 1v-3c0-3 0-3 1 0s1 4-1 3zm-442-5 1-4v4l-1 3v-3zm85 2v-9l1 10-1-1zm297 0 1-2v2h-1zM18 20l1-3 1 3-1 3-1-3zm135 1-1-5c-2-2-2-7-1-7l1 2 2 3c1 0 1 4-1 7-1 3-1 3 0 0zm126-2c0-3 0-3 1-1v5l-1-4zm4 2v-1 2-1zm35-1v-2 4-2zm125 0c0-2 0-3 1-2v4l-1-2zM70 15l1-7v14l-1-7zm475 6 1-1 1 1-1 1-1-1zm-116-5c0-2 0-3 1-2v4l-1-2zm-121 1 1-4 1-1-1 5h-1zm235-2v-2 4-2zm-106 0c0-1 0-2 1-1v2c0 1-1 1-1-1zM18 10l-1-7v-6c-1-6-1-6 1-6s2 2 2 12c0 7-1 13-2 13v-6zm195 4 1-1v2c0 1-1 1-1-1zM101 9l1-9c1-3 1-1 1 5-1 10-2 13-2 4zm245 4 1-2 1 1-1 2-1-1zm98 0c0-1 0-2 1-1v2l-1-1zm33 1c-2-1-1-8 0-8l1 5c0 4 0 4-1 3zm18-5V7v4-2zM54 6c0-3 0-5 1-3v6l-1-3zm136-2 2-9v7l-2 9V4zm25 5V7v3-1zm193-8c0-6 0-8 1-6V6c0 3-1 1-1-5zM139 8l1-2v3c-1 1-1 0-1-1zm170-2c0-6 1-7 1-1l-1 5V6zm121 1c0-3 0-3 1-1 2 3 2 4 1 4l-2-3zm14 1V5c1-1 2 1 1 3 0 2 0 2-1 0zM127 6V5v3-2zm23 1V-3l1 5-1 5zm4-2-2-8c0-6 1-6 3-6s3 1 3 6c0 3 0 5-1 4l-1 2v3c-1 2-1 1-2-1zm165 1V4l1 3c-1 1-1 0-1-1zm108 0v-9c-1-5 0-6 1-6l2 2c0 2 0 2-1 0-1-1-1 1-1 7 1 8 0 9-1 6zm116-3c1-7 2-8 2-2l-1 7-1-5zM387 2c0-2 0-4 1-2v4c0 1-1 1-1-2zM71 0c1-8 2-8 1-1l-1 6V0zm407 3-1-5c-1-2 0-3 1-4v-2c-1-1-1-1 1-1 1 0 2 1 1 7-1 7-2 9-2 5zM175 2V1v2-1zm42 0a51 51 0 0 1 2-5l-1-2-1-2 2-2c1 0 2 5 1 10-1 4-3 4-3 1zm129 1-1-4-1-5v-3c2 0 3 3 3 9 0 4-1 6-1 3zM138-3l1-6V2l-1-5zm190 2 1-2v2l-1 3v-3zM59-3v-2 4-2zm116-2 1-4v8l-1-4zm156 1v-2 4-2zm112 1 1-2 2-3v3c0 2 0 3-1 2 0-1-1-1-1 1-1 2-1 1-1-1zM54-5l1-4 1 3-1 4-1-3zm493-1 1-2v3l-1-1zM150-5l-1-3 1 1v2zm81-1 1-2v3c-1 1-1 0-1-1zm45 1-1-3h2l1 2-2 1zM5-7v-2 3-1zm323 0 1-2v3l-1-1zM102-8l1-1h1l-1 2c-1 1-1 0-1-1z" fill="#3E291E"/></svg>