<?xml version="1.0" encoding="utf-8"?>
<svg width="1024px" height="1024px" viewBox="0 0 1024 1024" class="icon" xmlns="http://www.w3.org/2000/svg">
  <path d="M 512.057 12 C 229.144 11.886 0 240.916 0 523.6 C 0 747.138 143.344 937.158 342.973 1006.942 C 369.857 1013.692 365.739 994.587 365.739 981.545 L 365.739 892.885 C 210.497 911.075 204.205 808.343 193.795 791.183 C 172.745 755.261 122.981 746.109 137.853 728.949 C 173.203 710.759 209.239 733.525 250.995 795.187 C 281.197 839.917 340.113 832.367 369.972 824.931 C 376.492 798.047 390.449 774.023 409.669 755.375 C 248.821 726.546 181.783 628.391 181.783 511.702 C 181.783 455.074 200.43 403.021 237.038 361.036 C 213.7 291.824 239.212 232.564 242.644 223.756 C 309.11 217.807 378.208 271.346 383.585 275.579 C 421.338 265.397 464.467 260.021 512.744 260.021 C 561.249 260.021 604.493 265.626 642.588 275.922 C 655.516 266.084 719.58 220.095 781.356 225.7 C 784.674 234.509 809.613 292.396 787.648 360.693 C 824.714 402.793 843.59 455.302 843.59 512.045 C 843.59 628.963 776.094 727.233 614.789 755.604 C 642.698 783.051 658.404 820.564 658.376 859.709 L 658.376 988.409 C 659.291 998.705 658.376 1008.887 675.536 1008.887 C 878.139 940.59 1024 749.198 1024 523.714 C 1024 240.916 794.741 12 512.057 12 Z" style="fill: rgb(255, 255, 255);"/>
</svg>