<?xml version="1.0" encoding="utf-8"?>
<svg width="61.076954mm" height="65.47831mm" viewBox="0 0 216.4144 232.00976" xmlns="http://www.w3.org/2000/svg">
  <path d="M 177.51 80.077 L 177.51 141.018 L 153.366 141.018 L 153.366 81.868 C 153.366 69.399 148.12 63.071 137.626 63.071 C 126.024 63.071 120.209 70.578 120.209 85.423 L 120.209 117.8 L 96.207 117.8 L 96.207 85.423 C 96.207 70.578 90.391 63.071 78.789 63.071 C 68.295 63.071 63.049 69.4 63.049 81.868 L 63.049 141.018 L 38.905 141.018 L 38.905 80.077 C 38.905 67.622 42.076 57.725 48.446 50.402 C 55.015 43.08 63.617 39.326 74.296 39.326 C 86.651 39.326 96.007 44.075 102.194 53.573 L 108.207 63.655 L 114.222 53.573 C 120.407 44.075 129.764 39.326 142.12 39.326 C 152.797 39.326 161.4 43.079 167.97 50.402 C 174.339 57.725 177.51 67.622 177.51 80.077 M211.80734 139.0875c-3.18125 16.36625-28.4925 34.2775-57.5625 37.74875-15.15875 1.80875-30.08375 3.47125-45.99875 2.74125-26.0275-1.1925-46.565-6.2125-46.565-6.2125 0 2.53375.15625 4.94625.46875 7.2025 3.38375 25.68625 25.47 27.225 46.39125 27.9425 21.11625.7225 39.91875-5.20625 39.91875-5.20625l.8675 19.09s-14.77 7.93125-41.08125 9.39c-14.50875.7975-32.52375-.365-53.50625-5.91875C9.23234 213.82 1.40609 165.31125.20859 116.09125c-.365-14.61375-.14-28.39375-.14-39.91875 0-50.33 32.97625-65.0825 32.97625-65.0825C49.67234 3.45375 78.20359.2425 107.86484 0h.72875c29.66125.2425 58.21125 3.45375 74.8375 11.09 0 0 32.975 14.7525 32.975 65.0825 0 0 .41375 37.13375-4.59875 62.915" style="fill: rgb(255, 255, 255);" fill-rule="evenodd"/>
</svg>