<svg width="100" height="100" viewBox="0 0 100 100" fill="none" xmlns="http://www.w3.org/2000/svg">
<g id="menu">
<g id="bottom">
<path id="Vector" d="M88.632 88C92.1489 88 94.9999 84.6421 94.9999 80.5C94.9999 76.3579 92.1489 73 88.632 73C85.1151 73 82.2641 76.3579 82.2641 80.5C82.2641 84.6421 85.1151 88 88.632 88Z" fill="white"/>
<path id="Vector_2" d="M88.2075 73H11.7924V88H88.2075V73Z" fill="white"/>
<path id="Vector_3" d="M11.3679 88C14.8848 88 17.7358 84.6421 17.7358 80.5C17.7358 76.3579 14.8848 73 11.3679 73C7.85099 73 4.99998 76.3579 4.99998 80.5C4.99998 84.6421 7.85099 88 11.3679 88Z" fill="white"/>
</g>
<g id="middle">
<path id="Vector_4" d="M88.6321 58C92.149 58 95 54.6421 95 50.5C95 46.3579 92.149 43 88.6321 43C85.1152 43 82.2642 46.3579 82.2642 50.5C82.2642 54.6421 85.1152 58 88.6321 58Z" fill="white"/>
<path id="Vector_5" d="M88.2075 43H11.7924V58H88.2075V43Z" fill="white"/>
<path id="Vector_6" d="M11.3679 58C14.8848 58 17.7358 54.6421 17.7358 50.5C17.7358 46.3579 14.8848 43 11.3679 43C7.85099 43 4.99998 46.3579 4.99998 50.5C4.99998 54.6421 7.85099 58 11.3679 58Z" fill="white"/>
</g>
<g id="top">
<path id="Vector_7" d="M88.632 28C92.1489 28 94.9999 24.6421 94.9999 20.5C94.9999 16.3579 92.1489 13 88.632 13C85.1151 13 82.2641 16.3579 82.2641 20.5C82.2641 24.6421 85.1151 28 88.632 28Z" fill="white"/>
<path id="Vector_8" d="M88.2075 13H11.7924V28H88.2075V13Z" fill="white"/>
<path id="Vector_9" d="M11.3679 28C14.8848 28 17.7358 24.6421 17.7358 20.5C17.7358 16.3579 14.8848 13 11.3679 13C7.85099 13 4.99998 16.3579 4.99998 20.5C4.99998 24.6421 7.85099 28 11.3679 28Z" fill="white"/>
</g>
</g>
</svg>
