<?xml version="1.0" encoding="utf-8"?>
<svg width="32px" height="32px" viewBox="0 0 32 32" id="Lager_111" data-name="Lager 111" xmlns="http://www.w3.org/2000/svg">
  <g>
    <path id="Path_112" data-name="Path 112" d="M 30 0 L 2 0 C 0.895 0 0 0.895 0 2 L 0 30 C 0 31.105 0.895 32 2 32 L 30 32 C 31.105 32 32 31.105 32 30 L 32 2 C 32 0.895 31.105 0 30 0 Z M 28 27 C 28 27.552 27.552 28 27 28 L 5 28 C 4.448 28 4 27.552 4 27 L 4 5 C 4 4.448 4.448 4 5 4 L 28 4 L 28 27 Z" style="fill: rgb(255, 255, 255);"/>
    <rect id="Rectangle_56" data-name="Rectangle 56" width="4" height="8.088" style="fill: rgb(255, 255, 255);" x="8" y="3.912"/>
    <rect id="Rectangle_57" data-name="Rectangle 57" width="24.088" height="4" style="fill: rgb(255, 255, 255);" x="3.956" y="8"/>
  </g>
</svg>