<svg width="300" height="300" viewBox="0 0 300 300" fill="none" xmlns="http://www.w3.org/2000/svg">
<path d="M69.874 121.776C69.874 129.115 68.1673 134.32 64.754 137.392C61.426 140.464 55.8793 142 48.114 142H21.746V52.4H46.578C54.258 52.4 60.0607 53.9787 63.986 57.136C67.9113 60.208 69.874 65.2853 69.874 72.368V121.776ZM58.738 71.216C58.738 68.4 57.8847 66.1813 56.178 64.56C54.4713 62.8533 52.21 62 49.394 62H32.882V132.4H49.266C52.5087 132.4 54.898 131.675 56.434 130.224C57.97 128.688 58.738 126.299 58.738 123.056V71.216ZM120.951 52.4V63.92H108.791V52.4H120.951ZM90.615 87.6V78H120.311V132.4H139.255V142H109.431V87.6H90.615ZM202.876 142C201.767 142 200.529 141.659 199.164 140.976C197.884 140.293 196.775 139.355 195.836 138.16C193.873 140.72 191.271 142 188.028 142H176.636C170.151 142 165.415 140.72 162.428 138.16C159.527 135.515 158.076 131.035 158.076 124.72V122.16C158.076 108.933 164.305 102.32 176.764 102.32H192.636V95.92C192.636 93.2747 191.825 91.2267 190.204 89.776C188.583 88.3253 186.193 87.6 183.036 87.6H163.196V78H181.756C189.18 78 194.641 79.6213 198.14 82.864C201.724 86.1067 203.516 91.312 203.516 98.48V129.2C203.516 130.48 203.985 131.461 204.924 132.144C205.948 132.741 207.612 133.04 209.916 133.04V142H202.876ZM186.748 132.4C189.308 132.4 190.929 131.803 191.612 130.608C192.295 129.413 192.636 127.877 192.636 126V111.92H176.636C174.417 111.92 172.583 112.645 171.132 114.096C169.681 115.547 168.956 117.381 168.956 119.6V126C168.956 128.219 169.468 129.84 170.492 130.864C171.516 131.888 173.137 132.4 175.356 132.4H186.748ZM257.281 142C254.38 142 251.82 140.976 249.601 138.928C247.468 136.88 246.401 133.637 246.401 129.2V62H227.585V52.4H257.281V128.56C257.281 129.925 257.622 130.907 258.305 131.504C258.988 132.101 260.14 132.4 261.761 132.4H278.785V142H257.281Z" fill="#F3F3F3"/>
<path d="M32.626 175V178.072C35.2713 176.024 38.6847 175 42.866 175H47.474C54.9833 175 60.4873 176.621 63.986 179.864C67.4847 183.021 69.234 188.227 69.234 195.48V218.52C69.234 225.688 67.442 230.893 63.858 234.136C60.3593 237.379 54.898 239 47.474 239H33.266V260.76H22.386V175H32.626ZM41.586 184.6C38.77 184.6 36.6793 185.368 35.314 186.904C33.9487 188.355 33.266 189.933 33.266 191.64V229.4H48.754C51.9113 229.4 54.3007 228.675 55.922 227.224C57.5433 225.773 58.354 223.725 58.354 221.08V192.92C58.354 190.275 57.5433 188.227 55.922 186.776C54.3007 185.325 51.9113 184.6 48.754 184.6H41.586ZM119.031 239C116.13 239 113.57 237.976 111.351 235.928C109.218 233.88 108.151 230.637 108.151 226.2V159H89.335V149.4H119.031V225.56C119.031 226.925 119.372 227.907 120.055 228.504C120.738 229.101 121.89 229.4 123.511 229.4H140.535V239H119.031ZM202.876 239C201.767 239 200.529 238.659 199.164 237.976C197.884 237.293 196.775 236.355 195.836 235.16C193.873 237.72 191.271 239 188.028 239H176.636C170.151 239 165.415 237.72 162.428 235.16C159.527 232.515 158.076 228.035 158.076 221.72V219.16C158.076 205.933 164.305 199.32 176.764 199.32H192.636V192.92C192.636 190.275 191.825 188.227 190.204 186.776C188.583 185.325 186.193 184.6 183.036 184.6H163.196V175H181.756C189.18 175 194.641 176.621 198.14 179.864C201.724 183.107 203.516 188.312 203.516 195.48V226.2C203.516 227.48 203.985 228.461 204.924 229.144C205.948 229.741 207.612 230.04 209.916 230.04V239H202.876ZM186.748 229.4C189.308 229.4 190.929 228.803 191.612 227.608C192.295 226.413 192.636 224.877 192.636 223V208.92H176.636C174.417 208.92 172.583 209.645 171.132 211.096C169.681 212.547 168.956 214.381 168.956 216.6V223C168.956 225.219 169.468 226.84 170.492 227.864C171.516 228.888 173.137 229.4 175.356 229.4H186.748ZM240.001 175V178.072C242.646 176.024 246.06 175 250.241 175H256.129C263.041 175 268.161 176.621 271.489 179.864C274.902 183.107 276.609 188.312 276.609 195.48V239H265.729V192.92C265.729 190.36 264.961 188.355 263.425 186.904C261.974 185.368 259.969 184.6 257.409 184.6H248.961C246.145 184.6 244.054 185.368 242.689 186.904C241.324 188.355 240.641 189.933 240.641 191.64V239H229.761V175H240.001Z" fill="#F3F3F3"/>
</svg>
