<svg width="100" height="100" viewBox="0 0 100 100" xmlns="http://www.w3.org/2000/svg">
	<g>
		<path d="M31.3134 49.9997C31.3134 60.3033 39.6961 68.6852 50 68.6852C60.3033 68.6852 68.6852 60.303 68.6852 49.9997C68.6852 39.6961 60.3033 31.3134 50 31.3134C39.6961 31.3134 31.3134 39.6961 31.3134 49.9997Z"/>
		<path d="M93.0272 25.3341C93.1728 25.078 93.1702 24.7636 93.0197 24.5102C88.6672 17.1797 82.4731 11.0393 75.1072 6.75312C67.5154 2.33508 58.8331 0 50 0C34.7131 0 20.4666 6.86033 10.9131 18.822C10.7023 19.0856 10.6748 19.4511 10.8436 19.7433L24.919 44.122C25.0666 44.3777 25.3387 44.5318 25.6285 44.5318C25.6652 44.5318 25.7026 44.5292 25.7397 44.5243C26.0695 44.4794 26.3393 44.2393 26.4226 43.9171C29.198 33.1633 38.8934 25.6528 50 25.6528C50.6892 25.6528 51.401 25.6843 52.1164 25.7452C52.1397 25.7475 52.1633 25.7485 52.1866 25.7485H92.3148C92.6095 25.7485 92.8816 25.5905 93.0272 25.3341Z"/>
		<path d="M57.3885 73.7456C57.1849 73.4823 56.8433 73.3692 56.521 73.4584C54.4039 74.0479 52.2102 74.3466 50 74.3466C40.6095 74.3466 31.9548 68.839 27.9505 60.3157C27.9407 60.2948 27.9298 60.2744 27.9184 60.2541L7.83967 25.4777C7.69344 25.2236 7.42262 25.0679 7.12984 25.0679C7.12852 25.0679 7.12689 25.0679 7.12557 25.0679C6.83115 25.0695 6.56 25.2285 6.41574 25.4849C2.21869 32.9325 0 41.4095 0 49.9997C0 62.0505 4.34754 73.6908 12.2416 82.7764C20.0574 91.7715 30.8174 97.6912 42.5403 99.4452C42.581 99.4515 42.6216 99.4541 42.662 99.4541C42.9515 99.4541 43.2236 99.3 43.3715 99.0443L57.4505 74.658C57.617 74.3695 57.5925 74.0089 57.3885 73.7456Z"/>
		<path d="M95.7951 31.2177H67.6069C67.2738 31.2177 66.9738 31.4193 66.8482 31.7275C66.7223 32.0357 66.7954 32.3898 67.0331 32.6226C71.7495 37.2462 74.3469 43.4174 74.3469 49.9997C74.3469 54.9826 72.8433 59.778 69.9984 63.8679C69.9852 63.8869 69.9731 63.9062 69.9616 63.9262L49.8482 98.763C49.701 99.018 49.702 99.3325 49.8505 99.5869C49.9977 99.8384 50.2672 99.9925 50.558 99.9925C50.561 99.9925 50.5643 99.9925 50.5672 99.9925C63.8033 99.8449 76.2239 94.579 85.5406 85.1656C94.8649 75.7443 100 63.2554 100 49.9997C100 43.699 98.842 37.5551 96.558 31.738C96.4348 31.4239 96.1321 31.2177 95.7951 31.2177Z"/>
	</g>
</svg>