<?xml version="1.0" encoding="utf-8"?>
<svg version="1.1" id="Layer_1" x="0px" y="0px" viewBox="0 0 512 512" style="enable-background:new 0 0 512 512;" xmlns="http://www.w3.org/2000/svg">
  <g>
    <path d="M 502.025 76.385 L 306.731 262.778 L 504.09 433.112 C 509.048 425.953 512 417.291 512 407.939 L 512 104.058 C 512 93.537 508.169 83.997 502.025 76.385 Z" style="fill: rgb(255, 255, 255);"/>
    <path d="M 223.684 256.925 L 230.485 263.248 C 244.804 276.577 267.212 276.568 281.506 263.257 L 488.849 65.36 C 482.534 61.887 475.383 59.737 467.678 59.737 L 44.322 59.737 C 35.123 59.737 26.573 62.562 19.481 67.374 L 223.641 256.899 C 223.65 256.908 223.667 256.916 223.684 256.925 Z" style="fill: rgb(255, 255, 255);"/>
    <path d="M 7.467 79.501 C 2.765 86.541 0 94.981 0 104.06 L 0 407.94 C 0 416.763 2.662 424.947 7.117 431.859 L 205.039 262.908 L 7.467 79.501 Z" style="fill: rgb(255, 255, 255);"/>
    <path d="M 293.284 275.615 L 293.216 275.675 L 293.207 275.684 L 293.13 275.752 C 280.117 287.869 262.487 292.418 246 289.371 C 244.916 289.175 243.884 288.739 242.809 288.475 C 240.633 287.937 238.431 287.46 236.324 286.649 C 233.192 285.446 230.154 283.944 227.253 282.143 C 227.227 282.126 227.202 282.117 227.176 282.109 C 224.249 280.291 221.467 278.167 218.856 275.743 L 217.627 274.6 L 18.963 444.191 C 26.157 449.243 34.878 452.264 44.324 452.264 L 467.671 452.264 C 476.58 452.264 484.84 449.576 491.795 445.036 L 294.342 274.634 L 293.284 275.615 Z" style="fill: rgb(255, 255, 255);"/>
  </g>
</svg>