<?xml version="1.0" encoding="utf-8"?>
<svg version="1.0" viewBox="19 24 472 433" xmlns="http://www.w3.org/2000/svg">
  <g>
    <path d="M 248 25 L 234 35 L 214 50 L 195 64 L 185 71 L 151 71 L 118 72 L 112 75 C 109 76 105 79 103 82 C 98 88 97 94 97 116 L 97 136 L 84 145 L 69 156 L 49 171 C 23 190 22 191 24 192 L 27 195 L 44 207 C 66.561 223.02 88.896 239.355 111 256 L 112 175 L 113 92 C 114 91 116 88 119 87 L 123 85 L 255 85 C 384 85 386 85 390 87 C 398 91 398 86 398 176 L 399 256 L 404 252 L 425 237 L 454 216 L 477 199 L 487 191 L 473 181 L 457 169 L 426 146 L 412 136 L 412 114 C 412 90 411 87 404 80 C 397 72 396 72 357 71 L 323 71 L 313 63 L 301 53 L 292 47 L 279 38 C 265 27 260 24 255 24 L 248 25 Z" style="fill: rgb(255, 255, 255);"/>
    <path d="M 249 143 C 216.225 145.562 189.205 169.715 183 202 C 179 218 181 238 187 250 C 195 268 210 282 226 287 C 255 295 280 293 301 282 C 311 277 330 258 328 255 L 320 254 L 312 254 L 306 260 C 294 271 284 275 263 276 C 234 277 216 269 205 252 C 196 238 194 220 199 201 C 202 190 209 178 217 172 C 227 163 245 157 258 157 C 264 157 276 160 284 164 C 292 167 301 176 304 183 L 307 189 L 308 203 C 308 215 308 216 303 226 C 298 235 283 246 280 242 C 279 240 279 239 285 209 C 291 181 292 178 291 176 L 283 175 C 275 175 275 176 273 181 L 273 184 L 271 182 L 263 176 C 259 174 257 174 251 174 C 241 174 231 179 225 186 L 220 192 C 218 193 213 205 212 210 C 208 221 210 236 215 245 C 219 250 225 256 229 257 C 234 260 244 259 250 257 L 257 253 L 260 250 L 262 252 L 264 255 C 264 256 270 259 273 259 C 287 262 306 251 315 234 C 324 218 327 206 323 191 C 317 162 294 144 263 143 L 248 143 Z M 260 191 C 266 195 269 203 267 214 C 265 231 253 244 242 244 C 236 244 230 238 229 231 C 226 217 234 196 244 191 C 249 188 256 188 260 191 Z M 19 322 L 20 444 C 51.742 422.018 82.759 399.005 113 375 C 126.429 364.679 140.099 354.676 154 345 L 172 331 L 180 325 L 178 323 C 171.184 318.202 164.515 313.2 158 308 L 145 298 L 125 282 L 105 267 C 94.629 258.294 83.956 249.956 73 242 L 26 205 L 19 200 L 19 322 Z M 474 213 L 450 232 L 428 248 L 404 267 C 394.338 274.257 384.996 281.931 376 290 C 361.333 300.558 346.993 311.564 333 323 L 331 326 L 347 338 L 399 377 L 463 424 L 490 445 L 491 384 L 491 262 L 490 200 L 473 213 Z M 161 352 L 114 387 L 78 414 L 54 431 L 47 436 C 39.077 442.758 31.076 449.425 23 456 C 24 458 485 457 486 456 C 487 455 487 455 463 437 L 447 425 L 439 419 L 402 391 L 382 376 L 342 347 L 321 332 L 318 334 L 315 337 L 306 343 C 290.43 356.159 273.694 367.874 256 378 L 248 377 L 238 370 C 230.639 363.306 222.963 356.965 215 351 C 206.49 344.903 198.153 338.567 190 332 L 161 352 Z" style="fill: rgb(255, 255, 255);"/>
  </g>
</svg>