<svg width="400" height="400" viewBox="0 0 400 400" fill="none" xmlns="http://www.w3.org/2000/svg">
<g clip-path="url(#clip0_2_27)">
<path d="M338.815 212.817V231.251C338.815 236.37 335.253 240.52 330.86 240.52H305.42C301.027 240.52 297.466 236.369 297.466 231.251V212.817H102.535V231.251C102.535 236.37 98.9735 240.52 94.5805 240.52H69.1399C64.7469 240.52 61.1852 236.369 61.1852 231.251V212.817C52.5117 212.817 26.0789 212.817 16.0453 212.817V357.727C16.0453 366.502 22.1508 373.616 29.6813 373.616H42.1336V384.111C42.1336 392.887 48.2391 400 55.7695 400H83.3352C90.8664 400 96.9711 392.886 96.9711 384.111V373.616H303.024V384.111C303.024 392.887 309.13 400 316.66 400H344.227C351.757 400 357.863 392.886 357.863 384.111V373.616H370.315C377.846 373.616 383.951 366.501 383.951 357.727V212.817C373.927 212.817 347.488 212.817 338.815 212.817Z" fill="white"/>
<path d="M390.909 149.965H9.09062C4.07812 149.965 0 154.716 0 160.558V184.453C0 190.295 4.07812 195.046 9.09062 195.046H61.1852V181.774C61.1852 176.654 64.7469 172.505 69.1398 172.505H94.5805C98.9734 172.505 102.535 176.655 102.535 181.774V195.046H297.466V181.774C297.466 176.654 301.027 172.505 305.42 172.505H330.86C335.254 172.505 338.815 176.655 338.815 181.774V195.046H390.909C395.922 195.046 400 190.294 400 184.453V160.558C400 154.716 395.922 149.965 390.909 149.965Z" fill="white"/>
<path d="M370.883 79.8995H358.43V15.889C358.43 7.11338 352.325 0 344.794 0H56.334C48.8028 0 42.6981 7.11429 42.6981 15.889V79.8995H30.2449C22.7137 79.8995 16.609 87.0138 16.609 95.7885V132.193C33.4973 132.193 375.189 132.193 384.519 132.193V95.7885C384.518 87.0138 378.413 79.8995 370.883 79.8995ZM331.156 79.8986H69.9699V31.7781H331.156V79.8986Z" fill="white"/>
</g>
<defs>
<clipPath id="clip0_2_27">
<rect width="400" height="400" fill="white"/>
</clipPath>
</defs>
</svg>
