<svg width="800" height="800" viewBox="0 0 800 800" fill="none" xmlns="http://www.w3.org/2000/svg">
<path d="M701.372 163.17L448.728 13.3005C434.035 4.59402 417.272 0 400.194 0C383.115 0 366.352 4.59402 351.659 13.3005L99.1221 163.17C84.1014 172.133 71.6733 184.853 63.0605 200.077C54.4477 215.301 49.947 232.506 50.0013 249.998V549.949C49.9121 567.391 54.3526 584.557 62.8881 599.767C71.4236 614.978 83.7619 627.712 98.6954 636.724L351.286 786.699C365.978 795.406 382.742 800 399.82 800C416.898 800 433.662 795.406 448.354 786.699L700.945 636.724C715.882 627.716 728.223 614.983 736.759 599.771C745.295 584.56 749.734 567.392 749.639 549.949V249.998C749.778 232.602 745.41 215.467 736.961 200.26C728.512 185.053 716.269 172.293 701.425 163.223L701.372 163.17ZM505.689 631.497V653.044C505.668 654.37 505.315 655.67 504.663 656.826C504.011 657.981 503.08 658.954 501.955 659.657L489.208 666.964C487.182 668.031 485.475 666.964 485.475 664.138V643.017C476.446 647.441 466.12 648.445 456.408 645.844C455.641 645.341 455.076 644.584 454.813 643.706C454.549 642.828 454.604 641.885 454.968 641.044L459.555 621.577C459.81 620.513 460.277 619.512 460.928 618.632C461.578 617.753 462.399 617.013 463.341 616.457C463.661 616.319 464.006 616.248 464.355 616.248C464.703 616.248 465.048 616.319 465.368 616.457C474.303 618.852 483.821 617.646 491.875 613.097C497.581 610.299 502.427 606.013 505.9 600.69C509.373 595.368 511.346 589.206 511.609 582.856C511.609 571.869 505.635 567.283 491.128 567.229C472.781 567.229 455.874 563.709 455.394 536.616C455.609 525.041 458.385 513.659 463.521 503.284C468.657 492.91 476.027 483.802 485.102 476.615V454.908C485.094 453.561 485.434 452.235 486.088 451.058C486.742 449.881 487.688 448.893 488.835 448.187L501.155 440.347C503.182 439.281 504.888 440.347 504.888 443.227V465.041C512.446 461.591 520.886 460.566 529.049 462.108C529.908 462.592 530.551 463.385 530.848 464.326C531.145 465.266 531.074 466.284 530.649 467.174L526.329 486.481C525.801 488.452 524.567 490.161 522.862 491.281C522.256 491.485 521.601 491.485 520.995 491.281C513.038 489.556 504.722 490.93 497.742 495.122C492.644 497.323 488.278 500.93 485.152 505.519C482.026 510.108 480.27 515.492 480.088 521.042C480.088 530.909 485.315 533.949 502.755 534.269C526.116 534.269 536.196 544.882 536.462 568.349C536.234 580.482 533.367 592.419 528.063 603.333C522.758 614.247 515.141 623.875 505.742 631.55L505.689 631.497ZM638.011 595.23C638.178 596.145 638.086 597.089 637.747 597.956C637.408 598.822 636.834 599.577 636.091 600.137L572.196 638.91C571.904 639.16 571.539 639.31 571.156 639.339C570.772 639.367 570.389 639.273 570.063 639.07C569.735 638.87 569.476 638.572 569.324 638.219C569.171 637.866 569.131 637.474 569.21 637.097V620.563C569.254 619.676 569.554 618.821 570.075 618.102C570.596 617.382 571.314 616.829 572.143 616.51L635.024 578.856C635.326 578.615 635.695 578.473 636.081 578.451C636.467 578.429 636.851 578.527 637.178 578.732C637.506 578.936 637.762 579.238 637.911 579.595C638.061 579.951 638.095 580.346 638.011 580.723V595.23ZM682.118 226.477L443.074 374.106C413.26 391.76 391.34 411.067 391.34 447.014V741.419C391.34 762.966 400.14 776.726 413.367 780.939C409.004 781.759 404.579 782.205 400.14 782.273C386.06 782.273 372.3 778.433 360.246 771.233L107.602 621.31C95.3457 613.876 85.2209 603.398 78.2117 590.893C71.2025 578.389 67.5474 564.284 67.6016 549.949V249.998C67.529 235.645 71.1753 221.518 78.1854 208.993C85.1954 196.469 95.3302 185.973 107.602 178.53L360.3 28.6608C372.319 21.5357 386.034 17.776 400.007 17.776C413.98 17.776 427.695 21.5357 439.714 28.6608L692.305 178.636C702.592 184.857 711.396 193.249 718.102 203.226C724.809 213.202 729.256 224.523 731.132 236.397C722.919 218.584 704.038 213.624 682.065 226.531H682.171L682.118 226.477Z" fill="white"/>
</svg>
