<svg xmlns="http://www.w3.org/2000/svg" width="387" height="546" version="1.1" viewBox="0 0 363 512"><path d="m362 101-33 370-148 41-148-41L0 101z" fill="#264de4"/><path d="m301 447 28-316H181v350z" fill="#2965f1"/><path d="m75 268 4 46h102v-46zm106-92H67l4 46h110zm0 257v-47l-51-13-3-37H81l7 72 93 25z" fill="#ebebeb"/><path d="M85 0h55v23h-32v23h32v23H85zm66 0h55v20h-32v4h32v46h-55V49h32v-4h-32zm66 0h55v20h-32v4h32v46h-55V49h32v-4h-32zm20 314-6 59-50 13v47l93-25 1-8 10-120 1-12 9-92H181v46h64l-4 46h-60v46z" fill="#fff"/></svg>